<svg width="972" height="553" viewBox="0 0 972 553" fill="none" xmlns="http://www.w3.org/2000/svg">
<mask id="mask0_1431_5530" style="mask-type:alpha" maskUnits="userSpaceOnUse" x="0" y="0" width="972" height="553">
<rect width="972" height="553" fill="#C4C4C4"/>
</mask>
<g mask="url(#mask0_1431_5530)">
<path d="M1188.42 109.446C1144.14 51.244 1078.34 12.8472 1005.48 2.70099C932.627 -7.44526 858.687 11.4901 799.925 55.3421V55.3421L622.012 188.77L444.394 55.3421C403.412 24.7493 354.667 6.01538 303.58 1.22377C252.493 -3.56783 201.065 5.77044 155.015 28.2003C108.965 50.6302 70.098 85.2728 42.7344 128.276C15.3709 171.279 0.583597 220.957 0.0169219 271.788C-0.549753 322.618 13.1261 372.608 39.5243 416.199C65.9225 459.791 104.009 495.275 149.547 518.707C195.086 542.139 246.293 552.599 297.474 548.927C348.656 545.254 397.806 527.591 439.46 497.902L440.743 496.925C443.407 495.019 446.071 493.015 448.686 491.011L622.16 360.907L795.288 491.011C797.903 493.015 800.567 495.019 803.231 496.925L804.514 497.902C858.386 536.28 924.357 554.264 990.466 548.591C1056.57 542.919 1118.44 513.966 1164.85 466.984C1211.26 420.001 1239.13 358.1 1243.42 292.505C1247.71 226.91 1228.12 161.964 1188.22 109.446H1188.42ZM360.766 384.562L359.186 385.784C338.427 400.871 313.843 409.946 288.179 411.993C262.515 414.041 236.781 408.981 213.852 397.38C190.923 385.778 171.7 368.09 158.331 346.293C144.962 324.495 137.973 299.446 138.144 273.941C138.315 248.437 145.64 223.481 159.3 201.861C172.96 180.242 192.418 162.809 215.5 151.51C238.583 140.211 264.382 135.49 290.016 137.875C315.651 140.261 340.112 149.657 360.667 165.017V165.017L507.152 274.838L360.766 384.562ZM1104.34 294.046C1101 317.594 1091.54 339.88 1076.91 358.731C1062.27 377.582 1042.95 392.353 1020.84 401.603C998.724 410.854 974.566 414.268 950.721 411.512C926.877 408.757 904.16 399.926 884.788 385.882L883.209 384.66L736.822 274.936L883.307 165.115C905.229 148.726 931.565 139.149 958.984 137.594C986.402 136.04 1013.67 142.579 1037.34 156.383C1061 170.187 1080 190.636 1091.93 215.141C1103.86 239.647 1108.18 267.107 1104.34 294.046V294.046Z" fill="white"/>
<path opacity="0.2" d="M1188.42 109.446C1144.14 51.244 1078.34 12.8472 1005.48 2.70099C932.627 -7.44526 858.687 11.4901 799.925 55.3421V55.3421L622.012 188.77L444.394 55.3421C403.412 24.7493 354.667 6.01538 303.58 1.22377C252.493 -3.56783 201.065 5.77044 155.015 28.2003C108.965 50.6302 70.098 85.2728 42.7344 128.276C15.3709 171.279 0.583597 220.957 0.0169219 271.788C-0.549753 322.618 13.1261 372.608 39.5243 416.199C65.9225 459.791 104.009 495.275 149.547 518.707C195.086 542.139 246.293 552.599 297.474 548.927C348.656 545.254 397.806 527.591 439.46 497.902L440.743 496.925C443.407 495.019 446.071 493.015 448.686 491.011L622.16 360.907L795.288 491.011C797.903 493.015 800.567 495.019 803.231 496.925L804.514 497.902C858.386 536.28 924.357 554.264 990.466 548.591C1056.57 542.919 1118.44 513.966 1164.85 466.984C1211.26 420.001 1239.13 358.1 1243.42 292.505C1247.71 226.91 1228.12 161.964 1188.22 109.446H1188.42ZM360.766 384.562L359.186 385.784C338.427 400.871 313.843 409.946 288.179 411.993C262.515 414.041 236.781 408.981 213.852 397.38C190.923 385.778 171.7 368.09 158.331 346.293C144.962 324.495 137.973 299.446 138.144 273.941C138.315 248.437 145.64 223.481 159.3 201.861C172.96 180.242 192.418 162.809 215.5 151.51C238.583 140.211 264.382 135.49 290.016 137.875C315.651 140.261 340.112 149.657 360.667 165.017V165.017L507.152 274.838L360.766 384.562ZM1104.34 294.046C1101 317.594 1091.54 339.88 1076.91 358.731C1062.27 377.582 1042.95 392.353 1020.84 401.603C998.724 410.854 974.566 414.268 950.721 411.512C926.877 408.757 904.16 399.926 884.788 385.882L883.209 384.66L736.822 274.936L883.307 165.115C905.229 148.726 931.565 139.149 958.984 137.594C986.402 136.04 1013.67 142.579 1037.34 156.383C1061 170.187 1080 190.636 1091.93 215.141C1103.86 239.647 1108.18 267.107 1104.34 294.046V294.046Z" fill="url(#paint0_linear_1431_5530)"/>
</g>
<defs>
<linearGradient id="paint0_linear_1431_5530" x1="880.055" y1="347.847" x2="50.4831" y2="-60.2287" gradientUnits="userSpaceOnUse">
<stop stop-color="#FC2659"/>
<stop offset="0.526042" stop-color="#7759C2"/>
<stop offset="0.984375" stop-color="white"/>
</linearGradient>
</defs>
</svg>