<?xml version="1.0" standalone="no"?><!DOCTYPE svg PUBLIC "-//W3C//DTD SVG 20010904//EN" "http://www.w3.org/TR/2001/REC-SVG-20010904/DTD/svg10.dtd"><svg version="1.0" xmlns="http://www.w3.org/2000/svg" viewBox="0 0 1771.000000 355.000000" preserveAspectRatio="xMidYMid meet"><g transform="translate(0.000000,355.000000) scale(0.100000,-0.100000)" fill="#171321" stroke="none"><path d="M15500 3320 c-497 -62 -828 -295 -932 -655 -30 -106 -33 -338 -5 -458 26 -110 87 -225 160 -304 165 -176 373 -269 860 -384 491 -116 627 -170 676 -272 24 -50 28 -131 8 -180 -54 -127 -264 -181 -609 -158 -355 25 -640 96 -923 232 -55 26 -101 46 -102 45 -1 -1 -51 -142 -111 -314 l-109 -313 38 -20 c224 -114 567 -211 925 -260 213 -30 636 -33 784 -6 394 72 643 234 778 502 122 244 117 579 -13 811 -78 140 -251 287 -437 373 -141 65 -244 97 -586 181 -368 90 -488 127 -556 170 -110 70 -114 230 -6 305 75 52 148 68 344 73 104 2 225 -1 290 -8 243 -25 514 -97 681 -179 44 -22 83 -37 86 -33 4 4 48 116 98 249 50 134 100 266 111 294 l20 50 -86 40 c-188 89 -482 169 -744 204 -138 19 -535 28 -640 15z"/><path d="M1813 3088 c-51 -101 -181 -356 -289 -568 -475 -930 -1124 -2204 -1124 -2207 0 -1 182 -3 405 -3 l404 0 122 250 122 250 604 0 c376 0 603 4 601 9 -1 6 -68 145 -148 310 l-145 301 -302 0 -302 0 222 450 c121 248 223 450 226 450 4 0 233 -455 511 -1010 l505 -1010 413 0 412 0 -46 93 c-113 225 -1438 2824 -1451 2845 l-13 22 -318 0 -317 0 -92 -182z"/><path d="M4200 1790 l0 -1480 360 0 360 0 0 1480 0 1480 -360 0 -360 0 0 -1480z"/><path d="M5410 1791 l0 -1481 360 0 360 0 0 1160 0 1160 423 0 c237 0 450 -5 487 -10 197 -31 303 -155 304 -355 0 -184 -67 -287 -230 -347 -56 -22 -77 -23 -466 -28 l-407 -5 492 -785 492 -785 409 -3 c327 -2 407 0 403 11 -2 7 -126 203 -274 437 -350 553 -383 606 -383 612 0 3 17 9 37 13 55 10 181 62 247 102 140 86 239 194 307 338 63 135 81 217 86 410 6 193 -10 296 -66 440 -92 238 -304 431 -568 518 -220 72 -200 71 -1155 75 l-858 3 0 -1480z"/><path d="M8405 3258 c-3 -7 -4 -672 -3 -1478 l3 -1465 955 0 c1057 0 1034 -1 1235 66 388 130 605 454 565 845 -28 268 -167 475 -395 588 l-67 33 65 46 c124 89 212 216 252 362 9 33 18 112 21 175 8 151 -16 274 -77 398 -61 123 -187 249 -314 314 -102 52 -191 83 -303 106 -66 13 -208 16 -1005 19 -754 3 -928 2 -932 -9z m1770 -635 c104 -35 172 -144 163 -261 -7 -97 -55 -168 -142 -215 -41 -22 -46 -22 -553 -25 l-513 -3 0 261 0 260 498 0 c438 0 504 -2 547 -17z m73 -1124 c116 -57 168 -151 160 -283 -8 -122 -63 -201 -178 -255 l-55 -26 -522 -3 -523 -3 0 300 0 301 528 0 529 0 61 -31z"/><path d="M11470 2405 c0 -888 3 -968 41 -1160 132 -660 621 -1015 1364 -992 191 6 316 25 455 69 441 139 712 462 812 968 22 114 22 126 26 1048 l3 932 -368 -2 -368 -3 -5 -925 c-6 -923 -6 -925 -28 -998 -67 -218 -193 -346 -392 -399 -45 -12 -104 -17 -190 -17 -203 0 -319 41 -431 153 -73 73 -117 152 -152 272 -21 73 -21 89 -24 997 l-4 922 -369 0 -370 0 0 -865z"/></g></svg>