<svg xmlns="http://www.w3.org/2000/svg" viewBox="0 0 146 60" enable-background="new 0 0 146 60">
<g fill-rule="evenodd">
<path fill="#171321" d="m-3.2 13.4h-5.7v-22.5h5.4v2.5c.7-1.5 2.4-2.9 4.5-3 3.7-.2 6.2 2 6.2 6.7v16.3h-5.9v-17c0-2 0-3.7-1.3-4-.5-.2-1.3 0-2 .5-.8.8-1.2 1.9-1.2 3.5 0 .4 0 17 0 17" transform="translate(138.66 14.473)"/>
<path fill="#171321" d="m5-7.8c-1.3-1.2-3-2-5-2-2 0-3.5.8-5 2-2.4 2-3.9 5.7-3.9 9.8 0 4.2 1.5 7.7 3.9 9.8 1.5 1.2 3 2 5 2 2 0 3.7-.8 5-2 2.5-2 3.9-5.6 3.9-9.8 0-4.1-1.4-7.8-3.9-9.8m-2.2 9.8c0 4.2 0 7.6-.7 9.3-.5.8-1 1.3-2.2 1.3-1 0-1.7-.5-2-1.3-.8-1.7-.8-5-.8-9.3 0-4 0-7.6.8-9.3.3-.8 1-1.3 2-1.3 1.2 0 1.7.5 2.2 1.3.9 1.7.7 5.2.7 9.3" transform="translate(33.15 14.641)"/>
<path fill="#171321" d="m4.3-9.8v6.1h-1.1c-.7-2.6-1.7-4.8-4.4-4.9-1.7-.2-3.2.8-3.4 2.4-.2 1.5.3 2.9 3.4 4.5 3.9 2.2 6.9 3.2 6.9 7.7 0 4.9-4.2 7.2-7.7 7.2-1.5 0-6.7 0-6.7 0v-8.4h1.2c.8 4.4 2.2 7.1 5.4 7.2 2 0 3.5-1.2 3.5-3.4s-1.4-3.4-4.6-5.3c-3.5-2.2-5.7-3.5-5.7-6.6 0-4 2.9-6.6 7.4-6.6 1.5.1 5.8.1 5.8.1" transform="translate(92.55 46.28)"/>
<path fill="#171321" d="m17.1 13.4v-16.3c0-4.7-2.5-6.9-6.2-6.7-2.5.2-4 1.9-4.7 3.2-.8-2.4-2.7-3.4-5.4-3.2-2.2.2-3.9 1.5-4.5 3v-2.5h-5.2v22.5h5.7c0 0 0-16.5 0-17 0-1.7.2-2.7 1.2-3.5.7-.5 1.3-.7 1.9-.5 1.3.3 1.3 2 1.3 4v17h5.7v-17.1c0-1.5.3-2.5 1.2-3.4.7-.5 1.3-.7 1.9-.5 1.3.3 1.5 2 1.5 4v17h5.6" transform="translate(87.17 14.473)"/>
<path fill="#171321" d="m-8.9-9.8h5.9v27.3h-5.9v-27.3" transform="translate(54.859 10.434)"/>
<path fill="#171321" d="m8.2 17.5v-27.3h-5.9v6.4c-.5-1.2-1.7-2-3.4-2-4.1 0-7.5 4.4-7.7 11.1-.2 4.5 1.3 12.1 7.2 12.1 2.4 0 3.7-1.3 4.2-2.5v2.2h5.6m-6.9-20.7c1.2 1.7 1.2 5.7 1.2 8.9 0 3.4.2 7.7-1.2 9.6-.5.7-1 1-1.9 1-1.2 0-1.9-1.3-2.2-3.5-.2-2-.2-4.5-.2-7.2 0-4.5.3-9.6 2.5-9.6 1-.1 1.3.3 1.8.8" transform="translate(64.45 10.434)"/>
<path fill="#171321" d="m4.7-8.6c1.5.8 2.5 2.2 2.5 5.2v16.7h-5.5v-2.5c-.7 1.9-2.5 3-5 3-2 0-5.6-1-5.6-6.2 0-4.9 3.2-5.9 6.7-7.4 3.2-1.4 3.5-1.6 3.5-2.9 0-1.2 0-2.2 0-3.7 0-1.5-.8-2.2-2.5-2.2-.7.2-1.9.5-1.9 1.3-.2 1 1 1 1.2 2.5.2 2.4-1.7 3.2-3.4 3-1.2 0-2.5-.7-2.7-2.5-.2-3 3.2-5.6 7.9-5.6 2.3.1 3.6.6 4.8 1.3m-3.4 8.4l-1.8 1.2c-1.9 1.2-2.2 2.7-2.4 4.4-.2 1.3-.2 2.5 0 4.5.2 1.9 1.3 2.2 2.4 1.9 1.2-.5 1.9-2.7 1.9-5-.1-.1-.1-6.2-.1-7" transform="translate(117.12 14.641)"/>
<path fill="#171321" d="m4.7-8.8c1.5 1 2.3 2.2 2.3 5.2v16.8h-5.3v-2.5c-.7 1.7-2.5 2.9-5 2.9-2.2 0-5.6-.8-5.6-6.1 0-4.9 3.2-5.9 6.6-7.4 3.3-1.5 3.6-1.7 3.6-2.8 0-1.2 0-2.2 0-3.7 0-1.7-.8-2.4-2.5-2.2-.7 0-1.9.3-1.9 1.2-.2 1.2 1 1.2 1.2 2.7.2 2.2-1.7 3-3.4 3-1.2-.2-2.5-.8-2.7-2.7-.1-2.9 3.3-5.4 8-5.4 2.2 0 3.5.3 4.7 1m-3.4 8.4l-1.9 1.2c-1.8 1.2-2.1 2.7-2.3 4.4-.2 1.3-.2 2.7 0 4.5 0 2 1.2 2.4 2.2 1.9 1.3-.5 2-2.5 2-5 0-.1 0-6.1 0-7" transform="translate(33.823 46.28)"/>
<path fill="#171321" d="m25.5 1.3c0-4.7-2.5-7.1-6.2-6.7-1.9.2-3.4 1-4.2 2.2v-6.6h-5.7v15.5c0 5.7-4 11.1-8.1 10.9-2.9 0-3.5-2.2-3.9-4.5-.5-3.4-.5-7.3-.1-11.5.3-2.7 1-4.9 3-4.9 1.5 0 1.7 1 1 1.7-.7.9-1.7 1.7-1.2 3.6.5 2 3.7 2.4 5.2.8 1.2-1.3 1-3.5.2-4.9-1-1.7-2.7-2.4-5.2-2.4-3.2 0-9.3 2.9-9.3 11.9 0 9.8 6.2 11.4 9.8 11.4 4 0 7.6-3.5 8.6-6.4v6.1h5.7v-17c0-1.7.3-2.7 1.2-3.5.7-.5 1.5-.7 2-.5 1.3.3 1.3 2 1.3 4v17h5.9v-16.2" transform="translate(53.682 41.902)"/>
<path fill="#171321" d="m11.4-9.8v9.6h-1.2c-1-4.7-3.2-8.3-6.2-8.4-2-.2-3.2 1-4.2 2.7-1 2-1.5 6.2-1.5 11.3 0 4.7.2 8.2.7 10.8.3 1.2 1.2 3 3.4 3 1.2 0 2-.3 2.5-1 .8-1 1-3 1-4.4 0-2.2 0-2.9 0-4.5s-.5-2.8-1.4-3.3c-.7-.3-1.7-.3-2.2-.5v-1.2h9.4v24.1h-1.2c-.5-1.9-.8-3.2-1.7-4.7-.8-1.5-2.3-3.2-4.8-3.2-2.7-.2-4.7 1.5-4.7 4 0 3.4 2 4.2 5.7 6.2 3.5 2 8.1 3.7 8.1 9.6 0 5.7-4.9 9.3-10.4 9.3-1.2 0-8.9 0-8.9 0v-11.6h1.2c1.5 8.8 5.2 10.3 7.7 10.3 3.2 0 4.7-2 4.7-4.9-.2-3.7-2.7-5-6.2-6.9-5-2.9-7.4-4.2-7.4-8.9.2-4 3.4-6.6 6.9-7.6-7.4-.8-9.6-7.6-9.4-14.8 0-7.2 4.2-15 12.5-15 3.6 0 7.6 0 7.6 0" transform="translate(8.919 9.929)"/>
</g>
</svg>
