<?xml version="1.0" standalone="no"?><!DOCTYPE svg PUBLIC "-//W3C//DTD SVG 20010904//EN" "http://www.w3.org/TR/2001/REC-SVG-20010904/DTD/svg10.dtd"><svg version="1.0" xmlns="http://www.w3.org/2000/svg" viewBox="0 0 2132.000000 323.000000" preserveAspectRatio="xMidYMid meet"><g transform="translate(0.000000,323.000000) scale(0.100000,-0.100000)" fill="#171321" stroke="none"><path d="M19930 2848 c-195 -210 -458 -492 -584 -627 l-230 -246 -2550 -5 c-1691 -3 -2551 -8 -2551 -15 0 -15 15 -16 2505 -70 624 -13 1367 -29 1650 -35 283 -6 688 -15 900 -20 212 -6 419 -10 461 -10 l77 0 6 48 c4 26 9 59 12 75 l6 27 -189 0 -188 1 51 47 c28 26 118 108 200 182 82 74 200 182 262 238 62 57 115 102 117 101 1 -2 -21 -128 -51 -279 -29 -151 -89 -464 -133 -695 -44 -231 -128 -668 -186 -971 -58 -302 -105 -558 -105 -567 0 -31 19 -18 29 21 6 20 71 285 146 588 l136 552 557 263 c829 394 1034 493 1036 504 1 7 -241 11 -686 13 -491 1 -688 5 -688 13 0 6 79 277 176 603 187 628 191 646 178 646 -5 0 -169 -172 -364 -382z m415 -1047 l140 -6 -310 -184 c-395 -235 -395 -235 -395 -222 0 6 25 101 55 211 30 110 55 203 55 205 0 7 279 4 455 -4z"/><path d="M18745 1558 c-351 -356 -398 -406 -391 -417 6 -9 347 298 601 541 l70 67 -45 1 -45 0 -190 -192z"/><path d="M1695 1659 c-154 -29 -282 -93 -383 -192 -215 -211 -315 -610 -209 -835 75 -163 267 -252 507 -239 367 21 624 232 720 592 27 99 37 269 21 346 -27 128 -113 245 -217 290 -100 45 -305 62 -439 38z m203 -244 c91 -38 117 -104 109 -269 -10 -221 -94 -397 -226 -474 -39 -23 -59 -27 -141 -30 -91 -3 -97 -2 -141 26 -70 45 -84 83 -84 222 0 136 17 209 75 325 53 108 112 169 196 199 53 20 165 20 212 1z"/><path d="M3050 1641 c-93 -24 -139 -43 -209 -88 -156 -98 -277 -274 -332 -483 -26 -101 -37 -282 -20 -358 45 -213 210 -316 501 -314 222 1 381 55 496 167 59 58 112 147 128 218 l6 27 -173 0 -174 0 -19 -41 c-40 -89 -119 -138 -222 -139 -92 0 -146 31 -185 105 -46 87 -14 333 63 485 40 79 107 152 168 181 65 31 179 33 219 3 41 -31 62 -65 65 -106 l2 -38 172 0 173 0 6 44 c16 102 -36 218 -121 274 -83 56 -160 74 -324 78 -119 3 -159 0 -220 -15z"/><path d="M260 1636 c0 -7 -251 -1182 -256 -1198 -5 -17 20 -18 440 -18 415 0 445 1 450 18 6 20 46 209 46 217 0 3 -124 5 -276 5 -257 0 -275 1 -270 18 3 9 48 220 101 467 53 248 98 460 102 473 l5 22 -171 0 c-94 0 -171 -2 -171 -4z"/><path d="M3997 1618 c-3 -13 -60 -279 -127 -593 -67 -314 -123 -578 -126 -587 -5 -17 7 -18 165 -18 153 0 170 2 175 18 2 9 32 148 66 307 66 314 68 320 76 313 2 -3 62 -146 133 -319 l129 -314 206 -3 c113 -1 206 0 206 3 0 3 -68 157 -151 342 l-152 335 269 269 269 269 -200 0 -200 0 -249 -265 c-137 -146 -251 -263 -253 -261 -3 3 74 383 102 504 l5 22 -169 0 c-167 0 -169 0 -174 -22z"/><path d="M5297 1618 c-3 -13 -60 -279 -127 -593 -66 -314 -123 -578 -126 -587 -5 -17 7 -18 165 -18 94 0 171 3 171 8 0 12 101 476 104 479 2 2 95 2 207 1 l205 -3 -51 -240 -51 -240 164 -3 c91 -1 167 0 170 3 3 2 60 265 128 582 68 318 126 590 130 606 l6 27 -171 0 c-94 0 -171 -2 -171 -5 0 -9 -90 -438 -96 -457 -5 -16 -24 -18 -210 -18 -112 0 -204 3 -204 7 0 10 89 432 96 456 5 16 -7 17 -164 17 -168 0 -170 0 -175 -22z"/><path d="M6625 1628 c-3 -11 -232 -1079 -251 -1175 l-6 -33 463 0 464 0 23 108 c12 59 22 110 22 115 0 4 -133 7 -295 7 -173 0 -295 4 -295 9 0 22 52 247 58 253 4 4 129 9 277 10 l268 3 23 100 c13 55 23 106 24 113 0 9 -61 12 -273 12 l-274 0 27 123 26 122 292 3 292 2 5 23 c14 64 45 207 45 212 0 3 -205 5 -455 5 -356 0 -457 -3 -460 -12z"/><path d="M7755 1628 c-5 -18 -255 -1192 -255 -1201 0 -4 208 -7 463 -7 l462 0 23 103 c12 56 22 108 22 115 0 9 -70 12 -295 12 -230 0 -295 3 -295 13 1 6 13 66 28 132 l27 120 275 5 275 5 22 100 c12 55 23 106 23 113 0 9 -61 12 -273 12 l-274 0 27 123 27 122 291 3 c266 2 291 4 296 20 6 20 46 209 46 217 0 3 -205 5 -455 5 -356 0 -457 -3 -460 -12z"/><path d="M8767 1043 c-70 -329 -127 -604 -127 -611 0 -11 67 -13 368 -10 339 4 373 6 446 26 265 73 419 229 502 509 38 129 45 304 15 401 -49 163 -166 243 -401 272 -46 5 -217 10 -380 10 l-295 0 -128 -597z m728 346 c57 -19 118 -84 134 -142 32 -111 -9 -311 -84 -422 -83 -121 -182 -166 -382 -173 -82 -3 -133 -1 -133 5 0 12 148 710 156 737 6 17 16 18 138 13 72 -3 149 -11 171 -18z"/><path d="M10816 1463 c-20 -98 -79 -373 -130 -610 l-92 -433 142 0 c127 0 143 2 148 18 3 9 51 237 106 507 56 269 103 491 105 493 6 6 15 -133 35 -543 12 -226 23 -425 26 -442 l5 -33 150 0 150 0 251 510 c138 280 253 508 255 507 2 -2 -49 -230 -112 -507 -63 -277 -115 -505 -115 -507 0 -2 71 -2 157 -1 l158 3 127 595 c70 327 127 601 128 608 0 9 -59 12 -262 12 l-263 0 -179 -403 c-99 -221 -182 -406 -186 -410 -8 -10 -18 168 -25 483 -3 124 -8 249 -11 278 l-5 52 -263 0 -263 0 -37 -177z"/><path d="M12917 1603 c-19 -31 -331 -543 -659 -1083 l-57 -95 156 -3 c87 -1 162 -1 169 2 6 2 40 56 75 120 l64 116 247 0 c226 0 247 -1 252 -17 2 -10 10 -64 16 -120 l12 -103 189 0 189 0 -5 23 c-6 29 -215 1185 -215 1192 0 3 -92 5 -205 5 l-205 0 -23 -37z m189 -455 c13 -134 22 -249 19 -255 -6 -17 -325 -19 -325 -2 0 6 48 99 106 207 148 274 165 304 171 298 3 -3 16 -115 29 -248z"/><path d="M13837 1043 c-70 -329 -127 -604 -127 -610 0 -10 40 -13 164 -13 148 0 165 2 170 18 3 9 26 117 52 240 l48 222 90 0 c119 0 161 -12 182 -52 15 -28 15 -44 0 -194 -9 -89 -16 -179 -16 -198 l0 -36 179 0 178 0 9 178 c5 97 8 207 7 244 -2 111 -44 155 -154 165 -32 3 -59 9 -59 12 0 4 26 12 58 19 166 35 269 131 301 280 23 109 9 182 -46 243 -62 69 -84 72 -523 77 l-385 4 -128 -599z m647 368 c59 -10 106 -54 106 -99 0 -50 -30 -120 -66 -151 -46 -41 -90 -51 -223 -51 -112 0 -113 0 -108 23 3 12 18 82 33 155 l27 132 91 -1 c50 0 113 -4 140 -8z"/><path d="M15072 1533 c-12 -60 -22 -114 -22 -120 0 -9 47 -13 183 -15 l184 -3 -103 -480 c-57 -264 -104 -483 -104 -487 0 -5 75 -8 168 -8 l167 0 105 490 105 490 192 0 c148 0 193 3 193 13 0 6 11 60 24 120 l23 107 -546 0 -547 0 -22 -107z"/><path d="M16300 1588 c-7 -29 -65 -303 -129 -608 l-118 -555 170 -3 c93 -1 171 -1 172 0 4 5 255 1191 255 1206 0 9 -41 12 -169 12 l-170 0 -11 -52z"/><path d="M16885 1628 c-6 -17 -255 -1191 -255 -1200 0 -5 65 -8 144 -8 129 0 145 2 150 18 2 9 46 217 97 462 51 245 95 448 99 453 3 4 50 -185 104 -420 54 -236 103 -447 108 -470 l10 -43 228 0 227 0 107 503 c59 276 117 550 130 610 l23 107 -146 0 -146 0 -95 -450 c-51 -248 -96 -450 -99 -450 -3 0 -53 197 -110 438 -58 240 -106 443 -109 450 -3 9 -59 12 -233 12 -175 0 -231 -3 -234 -12z"/><path d="M19394 1159 c-76 -45 -202 -118 -279 -163 -77 -46 -210 -123 -295 -173 -690 -403 -655 -382 -643 -394 8 -8 1315 641 1339 665 11 10 31 146 22 146 -3 0 -67 -36 -144 -81z"/></g></svg>