<svg width="1182" height="420" viewBox="0 0 1182 420" fill="none" xmlns="http://www.w3.org/2000/svg">
<path d="M26.4234 215.456H31.765C40.29 237.606 49.8109 253.581 60.3609 263.389C70.9192 273.214 83.8109 278.127 98.9943 278.127C110.982 278.127 120.544 275.031 127.657 268.869C134.782 262.719 138.348 254.402 138.348 243.985C138.348 234.51 134.757 226.531 127.594 220.077C120.432 213.61 106.548 206.548 85.9693 198.902C63.9067 190.739 48.4234 182.077 39.515 172.923C30.6109 163.735 26.165 152.235 26.165 138.323C26.165 122.089 31.5817 109.168 42.3734 99.6143C53.1984 90.0642 67.8109 85.3059 86.2359 85.3059C99.8526 85.3059 113.711 87.7184 127.794 92.5684C131.186 93.7267 133.261 94.2934 134.057 94.2934C135.769 94.2934 137.932 93.5893 140.511 92.2017C143.065 90.7851 146.061 88.6767 149.54 85.8101H154.232V151.214H148.907C142.032 131.835 133.207 117.16 122.461 107.152C111.69 97.1768 99.3484 92.2017 85.4443 92.2017C76.0734 92.2017 68.2942 94.7809 62.1234 99.9351C55.9567 105.11 52.8692 111.593 52.8692 119.435C52.8692 127.506 55.8901 134.31 61.9234 139.818C67.9567 145.323 80.5234 151.702 99.6526 158.902C113.361 164.01 123.39 168.102 129.694 171.152C135.986 174.189 140.99 177.223 144.74 180.277C152.982 186.956 159.036 194.052 162.919 201.573C166.773 209.081 168.694 217.635 168.694 227.173C168.694 245.344 162.165 259.56 149.073 269.906C136.015 280.264 117.923 285.419 94.8318 285.419C81.6276 285.419 67.8609 282.902 53.5359 277.869C49.8734 276.648 47.5984 276.023 46.7359 276.023C44.9359 276.023 42.7567 276.739 40.2442 278.127C37.7275 279.514 34.7359 281.698 31.2525 284.627H26.4234V215.456Z" fill="#0C6598"/>
<path d="M203.684 104.955C203.684 99.9971 205.338 95.9096 208.617 92.568C211.93 89.2888 216.071 87.6388 221.03 87.6388C225.875 87.6388 229.992 89.3055 233.35 92.643C236.684 95.9846 238.35 100.105 238.35 104.955C238.35 109.822 236.684 113.926 233.35 117.285C229.992 120.626 225.875 122.289 221.03 122.289C216.071 122.289 211.93 120.639 208.617 117.326C205.338 114.035 203.684 109.914 203.684 104.955ZM234.059 260.276C234.059 266.96 235.067 271.156 237.117 272.91C239.146 274.635 243.225 275.518 249.309 275.518H250.863V281.635H188.971V275.518H190.396C196.475 275.518 200.513 274.635 202.525 272.91C204.509 271.156 205.513 266.96 205.513 260.276V201.635C205.513 193.747 204.455 188.543 202.325 186.072C200.184 183.601 195.75 181.939 188.971 181.051V175.193C195.996 173.881 203.217 172.022 210.671 169.597C218.092 167.139 225.875 164.106 234.059 160.472V260.276Z" fill="#0C6598"/>
<path d="M305.518 260.278C305.518 266.961 306.531 271.157 308.577 272.911C310.627 274.636 314.685 275.519 320.773 275.519H322.331V281.636H260.168V275.519H261.868C267.952 275.519 271.985 274.603 273.985 272.711C275.989 270.853 276.981 266.699 276.981 260.278V201.632C276.981 193.744 275.906 188.544 273.723 186.073C271.556 183.603 267.043 181.907 260.168 181.053V175.194C267.285 173.882 274.602 172.036 282.068 169.657C289.535 167.261 297.339 164.194 305.518 160.473V181.311C314.289 174.111 322.489 168.819 330.064 165.461C337.694 162.153 345.335 160.473 353.073 160.473C366.189 160.473 376.144 164.257 382.914 171.79C389.694 179.344 393.064 190.436 393.064 205.019V260.278C393.064 266.961 394.056 271.157 396.069 272.911C398.077 274.636 402.148 275.519 408.298 275.519H409.885V281.636H346.71V275.519H348.244C354.419 275.519 358.494 274.636 360.502 272.911C362.506 271.157 363.498 266.961 363.498 260.278V201.373C363.498 192.861 361.202 186.257 356.602 181.511C351.998 176.782 345.648 174.403 337.585 174.403C331.744 174.403 326.127 175.957 320.706 179.115C315.281 182.211 310.214 186.865 305.518 193.044V260.278Z" fill="#0C6598"/>
<path d="M477.188 166.606C471.009 166.606 466.301 169.322 463.038 174.797C459.776 180.276 458.171 188.131 458.171 198.368C458.171 210.206 459.734 218.964 462.842 224.714C465.967 230.439 470.726 233.306 477.188 233.306C483.359 233.306 487.98 230.543 491.109 225.039C494.267 219.497 495.83 211.156 495.83 199.939C495.83 188.926 494.267 180.597 491.109 174.981C487.98 169.397 483.359 166.606 477.188 166.606ZM453.984 287.51C448.43 290.897 444.334 294.252 441.688 297.61C439.042 300.935 437.692 304.443 437.692 308.089C437.692 314.16 441.063 319.135 447.792 323.01C454.509 326.856 463.305 328.806 474.184 328.806C486.351 328.806 495.788 326.931 502.53 323.21C509.251 319.456 512.621 314.239 512.621 307.556C512.621 300.189 508.721 295.002 500.896 292.01C493.076 289.006 478.742 287.51 457.905 287.51H453.984ZM455.042 238.401V235.764C446.088 231.964 439.438 227.218 435.096 221.572C430.75 215.926 428.567 209.185 428.567 201.372C428.567 189.322 432.93 179.468 441.688 171.868C450.413 164.256 461.676 160.472 475.488 160.472C477.655 160.472 480.005 160.597 482.513 160.839C485.051 161.097 487.784 161.497 490.742 162.026C493.251 151.26 497.042 143.022 502.063 137.268C507.105 131.531 513.109 128.664 520.051 128.664C524.659 128.664 528.242 129.793 530.867 132.068C533.467 134.31 534.771 137.389 534.771 141.297C534.771 144.697 533.621 147.568 531.301 149.856C529.021 152.143 526.176 153.301 522.776 153.301C520.776 153.301 518.113 152.997 514.78 152.401C511.43 151.793 509.121 151.472 507.801 151.472C504.755 151.472 502.459 152.339 500.959 154.081C499.438 155.806 498.342 158.856 497.638 163.201C507.105 166.651 514.342 171.472 519.342 177.589C524.321 183.706 526.809 190.91 526.809 199.164C526.809 209.156 523.863 217.376 517.884 223.785C511.934 230.21 502.642 235.226 489.951 238.901C488.117 239.514 483.971 240.293 477.455 241.176C470.926 242.093 465.417 243.101 460.896 244.26C456.563 245.281 453.276 246.593 451.076 248.147C448.851 249.722 447.746 251.522 447.746 253.61C447.746 258.568 455.305 261.406 470.401 262.11C478.93 262.46 485.867 262.918 491.271 263.526C507.755 265.176 519.801 268.651 527.434 273.964C535.009 279.256 538.821 286.793 538.821 296.618C538.821 308.272 532.917 317.61 521.105 324.706C509.271 331.785 493.559 335.306 473.921 335.306C456.296 335.306 442.451 332.972 432.434 328.272C422.405 323.589 417.375 317.214 417.375 309.127C417.375 305.039 419.163 301.272 422.717 297.731C426.288 294.206 431.7 290.897 438.996 287.756V285.681C432.055 284.122 426.721 281.697 422.975 278.431C419.246 275.197 417.375 271.322 417.375 266.897C417.375 261.531 420.238 256.647 425.975 252.193C431.7 247.751 441.396 243.16 455.042 238.401Z" fill="#0C6598"/>
<path d="M565.467 126.33C565.467 118.426 564.363 113.197 562.2 110.647C560.042 108.068 555.496 106.343 548.625 105.488V99.8759C555.763 98.6884 563.063 96.8384 570.555 94.3967C578.009 91.9717 585.826 88.9384 593.971 85.3051V260.276C593.971 266.959 595.017 271.155 597.063 272.909C599.067 274.634 603.163 275.518 609.242 275.518H610.792V281.634H548.625V275.518H550.342C556.43 275.518 560.455 274.605 562.471 272.714C564.476 270.851 565.467 266.701 565.467 260.276V126.33Z" fill="#0C6598"/>
<path d="M652.659 201.908H692.684C697.901 201.908 701.563 201.421 703.692 200.458C705.834 199.529 706.897 197.958 706.897 195.775C706.897 187.538 704.551 180.671 699.863 175.242C695.163 169.825 689.213 167.108 682.013 167.108C673.134 167.108 666.213 170.083 661.234 176.033C656.23 181.983 653.371 190.617 652.659 201.908ZM735.426 238.371L739.459 241.392C732.434 256.571 724.105 267.725 714.455 274.8C704.797 281.863 693.117 285.421 679.409 285.421C662.376 285.421 648.363 279.821 637.363 268.609C626.396 257.409 620.905 243.267 620.905 226.133C620.905 207.721 626.838 192.158 638.692 179.479C650.546 166.821 665.071 160.471 682.255 160.471C697.992 160.471 710.83 164.833 720.817 173.563C730.826 182.304 736.684 194.296 738.43 209.583H651.913C651.913 210.1 651.867 210.908 651.784 211.992C651.692 213.075 651.646 213.883 651.646 214.417C651.646 228.225 655.526 239.363 663.301 247.829C671.08 256.313 681.263 260.538 693.872 260.538C702.105 260.538 709.542 258.8 716.126 255.321C722.73 251.854 729.147 246.196 735.426 238.371Z" fill="#0C6598"/>
<path d="M796.23 194.082C803.767 182.348 811.042 173.819 818.047 168.469C825.034 163.14 832.347 160.473 839.997 160.473C846.347 160.473 851.434 162.153 855.317 165.54C859.167 168.923 861.105 173.394 861.105 178.948C861.105 183.678 859.651 187.536 856.742 190.573C853.83 193.594 850.113 195.136 845.597 195.136C841.959 195.136 837.026 193.64 830.809 190.636C824.592 187.644 820.18 186.119 817.588 186.119C813.567 186.119 809.738 188.24 806.063 192.465C802.363 196.673 799.076 202.628 796.23 210.361V260.278C796.23 267.036 797.242 271.261 799.342 272.969C801.434 274.665 805.992 275.519 813.026 275.519H817.847V281.636H750.88V275.519H752.551C758.63 275.519 762.667 274.636 764.68 272.911C766.68 271.157 767.672 266.961 767.672 260.278V201.632C767.672 193.744 766.597 188.544 764.413 186.073C762.255 183.603 757.738 181.907 750.88 181.053V175.194C757.976 173.882 765.288 172.036 772.767 169.644C780.234 167.261 788.038 164.194 796.23 160.473V194.082Z" fill="#0C6598"/>
<path d="M1050.56 260.278C1050.56 266.961 1051.57 271.157 1053.6 272.911C1055.64 274.636 1059.7 275.519 1065.8 275.519H1067.34V281.636H1005.21V275.519H1006.9C1012.99 275.519 1017.01 274.603 1019.02 272.711C1021.01 270.853 1022.01 266.699 1022.01 260.278V201.632C1022.01 193.744 1020.93 188.544 1018.76 186.073C1016.57 183.603 1012.08 181.907 1005.21 181.053V175.194C1012.29 173.882 1019.63 172.036 1027.11 169.657C1034.56 167.261 1042.4 164.194 1050.56 160.473V181.311C1059.33 174.111 1067.51 168.819 1075.13 165.461C1082.71 162.153 1090.38 160.473 1098.11 160.473C1111.22 160.473 1121.16 164.257 1127.95 171.79C1134.71 179.344 1138.11 190.436 1138.11 205.019V260.278C1138.11 266.961 1139.1 271.157 1141.11 272.911C1143.09 274.636 1147.18 275.519 1153.33 275.519H1154.92V281.636H1091.72V275.519H1093.29C1099.46 275.519 1103.53 274.636 1105.54 272.911C1107.5 271.157 1108.53 266.961 1108.53 260.278V201.373C1108.53 192.861 1106.22 186.257 1101.62 181.511C1097.03 176.782 1090.68 174.403 1082.6 174.403C1076.8 174.403 1071.16 175.957 1065.72 179.115C1060.3 182.211 1055.25 186.865 1050.56 193.044V260.278Z" fill="#0C6598"/>
<path d="M947.976 221.513H906.372V224.35H947.976V221.513Z" fill="#0C6598"/>
<path d="M941.08 207.475H913.159V210.342H941.08V207.475Z" fill="#0C6598"/>
<path d="M946.163 214.004H908.268V216.842H946.163V214.004Z" fill="#0C6598"/>
<path d="M941.276 235.746H913.355V238.613H941.276V235.746Z" fill="#0C6598"/>
<path d="M946.08 229.4H908.167V232.267H946.08V229.4Z" fill="#0C6598"/>
<path d="M947.976 175.775H906.372V178.629H947.976V175.775Z" fill="#0C6598"/>
<path d="M941.276 189.871H913.355V192.708H941.276V189.871Z" fill="#0C6598"/>
<path d="M946.08 183.6H908.167V186.467H946.08V183.6Z" fill="#0C6598"/>
<path d="M947.976 267.267H906.372V270.104H947.976V267.267Z" fill="#0C6598"/>
<path d="M940.959 253.354H913.026V256.192H940.959V253.354Z" fill="#0C6598"/>
<path d="M946.151 259.85H908.238V262.717H946.151V259.85Z" fill="#0C6598"/>
<path d="M906.146 181.008H906.213C908.221 180.991 909.855 179.316 909.809 177.287V177.058C909.809 175.012 908.167 173.378 906.146 173.378C904.117 173.378 902.484 175.012 902.484 177.058V177.391C902.517 179.408 904.142 181.008 906.146 181.008Z" fill="#0C6598"/>
<path d="M906.346 181.679C904.563 182.608 903.876 184.821 904.83 186.608C904.867 186.713 904.934 186.833 904.996 186.942C905.659 188.146 906.896 188.833 908.221 188.833C908.796 188.833 909.413 188.679 909.955 188.392C911.738 187.4 912.388 185.158 911.413 183.388C911.376 183.342 911.33 183.279 911.305 183.204C910.351 181.421 908.155 180.717 906.346 181.679Z" fill="#0C6598"/>
<path d="M906.346 264.885C904.305 264.793 902.6 266.364 902.517 268.381C902.517 268.485 902.488 268.606 902.488 268.606C902.45 270.743 904.034 272.435 906.059 272.485H906.125C908.134 272.485 909.755 270.926 909.825 268.943V268.685C909.917 266.672 908.35 264.976 906.346 264.885Z" fill="#0C6598"/>
<path d="M938.513 211.596L938.713 211.75C939.405 212.346 940.284 212.65 941.122 212.65C942.151 212.65 943.143 212.221 943.868 211.396C945.218 209.859 945.043 207.538 943.526 206.213L943.272 206.013C941.738 204.7 939.422 204.884 938.101 206.409C936.797 207.967 936.98 210.267 938.513 211.596Z" fill="#0C6598"/>
<path d="M942.992 216.782C942.992 216.782 943.059 216.903 943.105 216.995C943.772 218.203 945.022 218.903 946.317 218.903C946.913 218.903 947.509 218.782 948.034 218.491C949.851 217.516 950.513 215.32 949.538 213.516C949.492 213.428 949.455 213.32 949.384 213.228C948.392 211.441 946.163 210.832 944.405 211.795C942.642 212.786 942.001 215.011 942.992 216.782Z" fill="#0C6598"/>
<path d="M910.338 257.639C908.6 256.614 906.346 257.181 905.309 258.935C905.267 259.026 905.196 259.135 905.134 259.239C904.142 261.01 904.738 263.222 906.521 264.214C907.096 264.581 907.713 264.701 908.334 264.701C909.613 264.701 910.85 264.047 911.505 262.856C911.542 262.793 911.596 262.718 911.642 262.66C912.671 260.918 912.075 258.66 910.338 257.639Z" fill="#0C6598"/>
<path d="M910.467 188.788C909.146 190.313 909.301 192.617 910.817 193.946C910.884 194.038 911.001 194.096 911.063 194.188C911.771 194.771 912.605 195.075 913.442 195.075C914.48 195.075 915.509 194.6 916.221 193.779C917.546 192.25 917.363 189.933 915.846 188.621L915.646 188.438C914.121 187.108 911.792 187.263 910.467 188.788Z" fill="#0C6598"/>
<path d="M917.984 199.07L918.242 199.253C918.838 199.603 919.501 199.787 920.134 199.787C921.372 199.787 922.584 199.162 923.272 198.02C924.33 196.295 923.772 194.053 922.034 192.999L921.813 192.845C920.097 191.795 917.801 192.328 916.763 194.053C915.705 195.791 916.259 198.02 917.984 199.07Z" fill="#0C6598"/>
<path d="M911.526 251.856C911.442 251.947 911.372 252.01 911.28 252.085C909.738 253.381 909.542 255.685 910.863 257.243C911.572 258.097 912.601 258.539 913.663 258.539C914.476 258.539 915.309 258.235 916.017 257.668L916.217 257.501C917.759 256.218 917.984 253.901 916.68 252.343C915.409 250.772 913.088 250.576 911.526 251.856Z" fill="#0C6598"/>
<path d="M939.071 234.357L938.896 234.511C937.38 235.853 937.226 238.174 938.567 239.699C939.292 240.507 940.301 240.92 941.321 240.92C942.155 240.92 943.038 240.645 943.742 240.016C943.83 239.957 943.901 239.895 943.984 239.803C945.488 238.461 945.592 236.128 944.23 234.632C942.909 233.12 940.596 233.016 939.071 234.357Z" fill="#0C6598"/>
<path d="M951.938 222.702C951.913 220.673 950.213 219.085 948.193 219.131C946.188 219.193 944.576 220.856 944.601 222.868V223.039C944.647 225.127 946.28 226.76 948.284 226.76H948.301C950.351 226.731 951.959 225.081 951.959 223.068C951.959 222.948 951.938 222.81 951.938 222.81" fill="#0C6598"/>
<path d="M948.218 227.416C946.388 226.5 944.205 227.233 943.305 229.079L943.188 229.279C942.268 231.079 942.976 233.275 944.763 234.237C945.313 234.496 945.884 234.633 946.447 234.633C947.751 234.633 949.055 233.9 949.688 232.65C949.759 232.525 949.805 232.421 949.851 232.329C950.751 230.529 950.018 228.3 948.218 227.416Z" fill="#0C6598"/>
<path d="M929.063 196.966L928.797 196.828C927.013 195.866 924.792 196.491 923.822 198.278C922.847 200.045 923.509 202.274 925.28 203.236L925.526 203.403C926.088 203.691 926.713 203.828 927.309 203.828C928.584 203.828 929.855 203.161 930.497 201.936C931.488 200.153 930.834 197.941 929.063 196.966Z" fill="#0C6598"/>
<path d="M932.28 207.201L932.522 207.368C933.117 207.735 933.784 207.889 934.447 207.889C935.676 207.889 936.842 207.276 937.551 206.135C938.609 204.41 938.076 202.168 936.33 201.114L936.092 200.947C934.347 199.926 932.105 200.443 931.076 202.185C929.984 203.906 930.563 206.181 932.28 207.201Z" fill="#0C6598"/>
<path d="M906.384 218.491C906.938 218.783 907.534 218.904 908.109 218.904C909.426 218.904 910.684 218.204 911.342 216.979C911.342 216.979 911.442 216.841 911.455 216.783C912.446 215.012 911.792 212.787 910.051 211.796C908.267 210.833 906.042 211.441 905.063 213.229C904.996 213.333 904.955 213.425 904.896 213.516C903.942 215.304 904.596 217.516 906.384 218.491Z" fill="#0C6598"/>
<path d="M906.146 226.76C908.167 226.76 909.809 225.127 909.809 223.131C909.809 223.131 909.809 222.96 909.826 222.868C909.867 220.856 908.267 219.177 906.238 219.131C904.234 219.085 902.555 220.689 902.484 222.702V223.068C902.471 225.081 904.117 226.727 906.126 226.76H906.146Z" fill="#0C6598"/>
<path d="M913.326 212.649C914.171 212.649 915.026 212.345 915.738 211.749L915.934 211.595C917.476 210.27 917.651 207.966 916.33 206.411C915.026 204.882 912.713 204.699 911.176 206.011L910.93 206.211C909.388 207.536 909.23 209.857 910.551 211.399C911.28 212.22 912.296 212.649 913.326 212.649Z" fill="#0C6598"/>
<path d="M911.259 229.277C911.213 229.202 911.197 229.139 911.143 229.048C910.251 227.235 908.072 226.502 906.238 227.414C904.401 228.302 903.676 230.527 904.584 232.327C904.651 232.452 904.697 232.527 904.738 232.648C905.393 233.898 906.68 234.631 908.026 234.631C908.568 234.631 909.147 234.494 909.672 234.235C911.459 233.273 912.168 231.077 911.259 229.277Z" fill="#0C6598"/>
<path d="M944.493 188.391C945.043 188.682 945.638 188.832 946.247 188.832C947.534 188.832 948.788 188.132 949.476 186.941C949.522 186.836 949.58 186.711 949.618 186.607C950.572 184.82 949.872 182.607 948.084 181.678C946.301 180.716 944.097 181.403 943.143 183.203C943.105 183.282 943.059 183.341 943.034 183.386C942.068 185.157 942.709 187.399 944.493 188.391Z" fill="#0C6598"/>
<path d="M940.993 195.074C941.847 195.074 942.68 194.77 943.372 194.174C943.472 194.099 943.526 194.036 943.63 193.945C945.159 192.62 945.309 190.316 943.968 188.786C942.643 187.261 940.33 187.111 938.809 188.436L938.613 188.62C937.063 189.932 936.888 192.249 938.218 193.778C938.938 194.632 939.955 195.074 940.993 195.074Z" fill="#0C6598"/>
<path d="M915.538 234.511C915.492 234.465 915.426 234.436 915.363 234.356C913.859 233.015 911.542 233.123 910.205 234.631C908.834 236.127 908.963 238.461 910.467 239.806C910.551 239.894 910.617 239.956 910.709 240.019C911.409 240.644 912.271 240.919 913.126 240.919C914.151 240.919 915.163 240.506 915.867 239.698C917.209 238.173 917.08 235.852 915.538 234.511Z" fill="#0C6598"/>
<path d="M948.101 264.885C946.08 264.976 944.53 266.672 944.597 268.685V268.851C944.693 270.926 946.313 272.485 948.284 272.485H948.388C950.413 272.435 951.984 270.743 951.938 268.714C951.938 268.714 951.938 268.485 951.913 268.381C951.855 266.364 950.13 264.793 948.101 264.885Z" fill="#0C6598"/>
<path d="M947.934 264.214C949.688 263.223 950.313 261.01 949.322 259.239C949.255 259.135 949.163 259.027 949.138 258.935C948.101 257.181 945.851 256.614 944.122 257.639C942.38 258.66 941.788 260.919 942.817 262.66C942.863 262.719 942.905 262.794 942.93 262.856C943.609 264.048 944.847 264.702 946.117 264.702C946.713 264.702 947.355 264.581 947.934 264.214Z" fill="#0C6598"/>
<path d="M943.609 257.242C944.913 255.688 944.713 253.396 943.143 252.084C943.076 252.009 942.993 251.946 942.93 251.855C941.359 250.576 939.047 250.771 937.751 252.346C936.468 253.901 936.668 256.217 938.23 257.501L938.43 257.667C939.109 258.234 939.955 258.538 940.793 258.538C941.847 258.538 942.859 258.096 943.609 257.242Z" fill="#0C6598"/>
<path d="M921.709 238.935L921.459 238.797C919.771 237.731 917.492 238.264 916.438 239.989C915.363 241.71 915.888 243.956 917.605 245.022L917.871 245.206C918.467 245.543 919.13 245.739 919.788 245.739C921.001 245.739 922.213 245.114 922.913 243.985C923.976 242.276 923.426 239.989 921.709 238.935Z" fill="#0C6598"/>
<path d="M948.284 173.379C946.28 173.379 944.601 175.013 944.601 177.058V177.283C944.601 179.313 946.209 180.992 948.23 181.008H948.284C950.284 181.008 951.913 179.404 951.959 177.392V177.058C951.959 175.013 950.313 173.379 948.284 173.379Z" fill="#0C6598"/>
<path d="M935.967 247.051L935.726 246.867C933.984 245.846 931.734 246.396 930.697 248.134C929.642 249.876 930.213 252.117 931.955 253.184L932.167 253.305C932.763 253.671 933.426 253.838 934.067 253.838C935.326 253.838 936.517 253.201 937.226 252.055C938.255 250.33 937.705 248.088 935.967 247.051Z" fill="#0C6598"/>
<path d="M930.634 198.278C929.643 196.491 927.409 195.866 925.655 196.828L925.388 196.966C923.626 197.941 922.984 200.153 923.951 201.936C924.613 203.161 925.851 203.832 927.151 203.832C927.768 203.832 928.359 203.695 928.909 203.403L929.176 203.236C930.963 202.274 931.601 200.045 930.634 198.278Z" fill="#0C6598"/>
<path d="M929.092 242.596L928.846 242.476C927.08 241.496 924.859 242.138 923.888 243.921C922.913 245.676 923.555 247.921 925.326 248.88L925.559 249.034C926.134 249.338 926.751 249.476 927.346 249.476C928.651 249.476 929.901 248.792 930.563 247.584C931.534 245.801 930.892 243.559 929.092 242.596Z" fill="#0C6598"/>
<path d="M970.3 265.999C958.796 277.532 943.471 283.849 927.209 283.849C910.946 283.849 895.659 277.532 884.155 265.999C872.63 254.528 866.309 239.223 866.309 222.948C866.309 206.682 872.63 191.365 884.155 179.861C895.659 168.361 910.946 162.028 927.209 162.028C943.471 162.028 958.796 168.361 970.3 179.861C981.805 191.365 988.151 206.682 988.151 222.948C988.151 239.223 981.805 254.528 970.3 265.999ZM927.209 153.057C888.634 153.057 857.338 184.332 857.338 222.948C857.338 261.528 888.634 292.819 927.209 292.819C965.821 292.819 997.088 261.528 997.088 222.948C997.088 184.332 965.821 153.057 927.209 153.057Z" fill="#0C6598"/>
</svg>
