<svg viewBox="0 0 130 26" fill="none" xmlns="http://www.w3.org/2000/svg">
<path d="M96.0107 4.19888C95.4041 4.19888 94.9058 3.99204 94.4726 3.59904C94.0393 3.18536 93.8444 2.70962 93.8444 2.13047C93.8444 1.55131 94.061 1.05489 94.4942 0.66189C94.9275 0.26889 95.4258 0.06205 96.0323 0.06205C96.6172 0.06205 97.1155 0.26889 97.5271 0.66189C97.9603 1.07557 98.177 1.55131 98.177 2.10978C98.177 2.66825 97.9603 3.16468 97.5487 3.57836C97.1371 4.01273 96.6172 4.19888 96.0107 4.19888ZM42.3946 18.7812L36.7622 0.268892H29.1152V1.46857H29.8517C30.4366 1.46857 30.8915 1.50994 31.1948 1.61336C31.7147 1.77884 32.0613 2.15115 32.213 2.75099C32.2996 3.01989 32.3213 3.59904 32.3213 4.46778V19.0708C32.3213 20.436 32.278 21.4081 32.1913 21.9666C32.0613 22.7112 31.7797 23.2697 31.3464 23.642C30.8915 24.035 30.3499 24.2212 29.7434 24.2212H29.1152V25.4415H37.2821V24.2212H36.7622C35.3324 24.2212 34.4226 23.5593 34.0327 22.2562C33.9027 21.7804 33.8377 20.7049 33.8377 19.0708V2.54415L40.7915 25.4415H42.0047L48.9802 2.54415V20.5187C48.9802 21.3667 48.9368 22.07 48.8719 22.6078C48.8285 23.0628 48.6552 23.4145 48.3953 23.6627C47.9837 24.035 47.2905 24.2418 46.2939 24.2418H45.969V25.4622H55.8907V24.2418H55.3491C53.9843 24.2418 53.1611 23.8488 52.8795 23.0835C52.7279 22.6698 52.6629 21.8218 52.6629 20.5394V5.21241C52.6629 4.36436 52.7062 3.6611 52.7712 3.10263C52.8145 2.66826 52.9878 2.31663 53.2478 2.06842C53.6377 1.67542 54.3526 1.48926 55.3274 1.48926H55.869V0.268892H48.157L42.3946 18.7812ZM64.3176 7.52904C66.7872 7.52904 68.7802 8.45982 70.3183 10.3214C71.6614 11.9348 72.3329 14.0859 72.3329 16.7128C72.3329 19.4017 71.6614 21.5529 70.3183 23.187C68.8019 25.0485 66.7655 25.9793 64.2093 25.9793C61.8047 25.9793 59.8334 25.0485 58.3169 23.187C56.9738 21.5529 56.3023 19.4018 56.3023 16.7542C56.3023 14.0859 56.9738 11.9348 58.3169 10.3214C59.8334 8.45982 61.8264 7.52904 64.3176 7.52904ZM64.3176 24.7589C67.0905 24.7589 68.4769 22.07 68.4769 16.6714C68.4769 14.1893 68.1736 12.3071 67.5671 11.004C67.1988 10.1973 66.6356 9.59745 65.9207 9.16308C65.4224 8.87351 64.9025 8.72872 64.3176 8.72872C63.4078 8.72872 62.6062 9.08035 61.913 9.78361C60.7432 10.9419 60.1583 13.1965 60.1583 16.5473C60.1583 19.319 60.5266 21.4288 61.2415 22.856C61.8697 24.1384 62.8879 24.7589 64.3176 24.7589ZM83.6194 7.69451C85.5257 7.69451 87.0855 8.33572 88.3203 9.63882C89.9017 11.3142 90.7032 13.5895 90.7032 16.4439C90.7032 19.1742 89.9883 21.4288 88.5802 23.2697C87.2588 24.9865 85.5041 25.8345 83.3378 25.8345C82.168 25.8345 81.0848 25.5243 80.11 24.9244C79.8934 24.8003 79.4601 24.4694 78.7885 23.9523C78.5286 23.7454 78.3119 23.6627 78.117 23.6627C77.8787 23.6627 77.6187 23.8488 77.3371 24.2418C77.0772 24.5935 76.7955 24.9865 76.5139 25.4415H75.1925C75.3224 25.0899 75.3874 24.8624 75.4091 24.8003C75.5174 24.3039 75.5824 23.2697 75.5824 21.7184V4.42641C75.5824 3.06126 75.4308 2.2132 75.1058 1.88225C74.8459 1.57199 74.3259 1.42721 73.5677 1.42721H73.2861V0.268892L78.9185 0.0206791V10.5282C79.2435 9.8043 79.6767 9.24582 80.2183 8.83214C81.1931 8.06682 82.3196 7.69451 83.6194 7.69451ZM82.9045 24.5107C85.5257 24.5107 86.8255 21.8425 86.8255 16.5267C86.8255 14.0859 86.5006 12.2037 85.8507 10.8799C85.2225 9.6595 84.3126 9.03898 83.0778 9.03898C82.2113 9.03898 81.4098 9.34924 80.6516 9.99045C79.2651 11.2108 78.5719 13.4033 78.5719 16.5887C78.5719 19.0501 78.8968 20.9531 79.5467 22.2975C79.8933 23.0008 80.3916 23.58 81.0632 23.9936C81.6264 24.3246 82.233 24.5107 82.9045 24.5107ZM123.501 22.9594C123.999 22.401 124.498 21.615 125.018 20.6221L126.187 21.222C124.519 24.4073 122.288 26 119.472 26C117.392 26 115.702 25.3174 114.359 23.973C112.713 22.2975 111.89 19.8568 111.89 16.6714C111.89 13.755 112.713 11.397 114.359 9.63882C115.659 8.25298 117.219 7.54972 119.06 7.54972C121.768 7.54972 123.826 8.85282 125.191 11.459C125.927 12.8449 126.339 14.5823 126.404 16.6508H115.594C115.616 19.0915 115.876 20.891 116.396 22.0493C117.11 23.7041 118.345 24.5314 120.1 24.5314C121.443 24.5107 122.57 23.9936 123.501 22.9594ZM116.006 12.1002C115.746 12.969 115.616 14.0446 115.594 15.2856H122.721C122.721 13.755 122.548 12.4726 122.201 11.4797C121.573 9.72156 120.577 8.83214 119.233 8.83214C117.717 8.85282 116.634 9.94909 116.006 12.1002ZM108.489 23.8282C108.164 23.4765 108.012 22.6078 108.012 21.222V0L102.206 0.248206V1.40652H102.64C103.376 1.40652 103.896 1.55131 104.156 1.86158C104.481 2.21321 104.633 3.06126 104.633 4.42641V21.2013C104.633 22.5871 104.481 23.4352 104.156 23.8075C103.874 24.1177 103.376 24.2625 102.64 24.2625H102.011V25.4208H110.655V24.2625H110.027C109.29 24.2832 108.77 24.1177 108.489 23.8282ZM98.4586 23.8282C98.1336 23.4765 97.982 22.6078 97.982 21.222V7.79793L92.1763 8.04614V9.22514H92.6312C93.3678 9.22514 93.8877 9.36993 94.1693 9.6595C94.4942 10.0111 94.6459 10.8592 94.6459 12.2243V21.2013C94.6459 22.5871 94.4942 23.4352 94.1693 23.8075C93.8877 24.1177 93.3894 24.2625 92.6312 24.2625H92.003V25.4208H100.647V24.2625H100.018C99.2385 24.2832 98.7402 24.1177 98.4586 23.8282ZM16.2906 11.852V16.961H21.6414V11.852H18.8685H16.2906ZM0.28162 0.268892L0.0216627 9.16308L1.42976 9.39061C1.68972 6.76372 2.4046 4.81941 3.59607 3.55767C4.83086 2.23389 6.54224 1.53062 8.73021 1.48926V20.0843C8.73021 21.7184 8.49192 22.7526 7.99367 23.249C7.58207 23.6627 6.86719 23.9109 5.84903 24.0143C5.54574 24.035 5.04749 24.0557 4.33261 24.0557V25.4829H17.3521V24.0557C16.6372 24.0557 16.1173 24.035 15.8357 24.0143C14.8392 23.9109 14.1243 23.6627 13.6911 23.249C13.1928 22.7526 12.9545 21.7184 12.9545 20.0843V1.48926C15.1425 1.55131 16.8539 2.23389 18.1103 3.55767C19.2801 4.81941 20.0167 6.76372 20.2766 9.39061L21.6847 9.16308L21.4248 0.268892H0.28162ZM5.35078 11.852H2.70788H0V16.961H5.35078V11.852ZM127.292 9.55608V7.79793H127.877V7.52904H126.404V7.79793H126.989V9.55608H127.292ZM128.419 9.55608V7.98409L128.917 9.55608H129.242L129.718 7.96341V9.55608H130V7.52904H129.588L129.068 9.16308L128.549 7.52904H128.137V9.55608H128.419Z" fill="#171321"/>
</svg>
