<svg viewBox="0 0 156 60" fill="none" xmlns="http://www.w3.org/2000/svg"><g clip-path="url(#clip0_118_2471)"><mask id="mask0_118_2471" style="mask-type:luminance" maskUnits="userSpaceOnUse" x="0" y="0" width="156" height="60"><path d="M156 0H0V59.9664H156V0Z" fill="white"/></mask><g mask="url(#mask0_118_2471)"><path d="M141.534 48.8907C139.21 48.7187 136.703 48.1348 134.713 47.3015C134.263 47.1131 133.945 45.3997 133.719 45.3136L133.253 43.0194C133.193 40.9755 133.116 38.7172 133.083 38.0015L133.021 36.6999H134.688L134.901 38.3008C135.691 44.2818 138.851 47.2919 144.335 47.2919C147.977 47.2919 150.235 45.9258 151.373 43.0339C151.728 42.1318 151.782 41.6667 151.789 39.4803C151.798 36.9919 151.792 36.9517 151.211 35.7646C150.193 33.6813 149.164 32.9904 144.034 30.9479C142.512 30.342 140.705 29.5631 140.017 29.2167C135.538 26.9592 133.319 23.7563 133.327 19.5621C133.339 14.1963 136.326 10.3234 141.535 8.92144C143.347 8.43371 147.766 8.48687 149.656 9.01967C151.428 9.51895 153.773 10.447 154.021 10.7487C154.127 10.8772 154.248 12.3959 154.303 14.2771C154.356 16.0937 154.428 18.0042 154.464 18.5225L154.53 19.465H152.842L152.471 17.5745C151.607 13.1725 149.581 10.8524 146.092 10.2708C143.267 9.7998 139.845 10.8903 138.496 12.6898C137.471 14.0579 137.163 15.1295 137.163 17.3107C137.163 19.0449 137.205 19.2798 137.692 20.2477C138.325 21.505 139.225 22.3272 140.91 23.188C142.091 23.791 146.076 25.3897 146.4 25.3897C146.713 25.3897 150.294 27.1747 151.219 27.7925C153.793 29.511 155.227 31.8174 155.739 35.0613C155.988 36.6469 155.999 37.1757 155.815 38.6449C155.399 41.9737 154.428 44.0365 152.38 45.9461C149.755 48.394 146.559 49.2623 141.534 48.8907ZM78.1954 48.6479C72.5135 47.5595 69.827 44.569 69.0792 38.4999C68.9637 37.5625 68.8917 31.9281 68.8917 23.8234V10.6681H64.6082V9.05261H78.7083V10.6577L76.4326 10.7079L74.157 10.7582L74.105 22.4275C74.0368 37.6117 74.2084 40.057 75.5312 42.7597C76.836 45.4257 79.3572 46.7537 83.1143 46.7537C87.3753 46.7537 89.7503 45.1605 91.0314 41.443C91.8511 39.0653 91.9141 37.809 91.9153 23.8191L91.9162 10.6684H87.6327V9.05261H97.9847V10.6684H94.0725L94.0168 24.9857C93.9616 39.1523 93.9567 39.3185 93.5637 40.7394C92.4022 44.9377 90.1056 47.29 86.1157 48.3683C84.2521 48.8718 80.124 49.0171 78.1954 48.6479ZM100.339 47.6149L100.394 46.8432L102.536 46.8147L104.678 46.7863L104.723 28.7327L104.769 10.6793L102.582 10.6288L100.394 10.5785L100.339 9.8154L100.285 9.05261H109.051C114.595 9.05261 118.289 9.12572 119.101 9.25198C122.2 9.73392 124.317 11.1029 125.455 13.3609C126.437 15.3084 126.739 17.7473 126.281 20.0256C125.79 22.4691 124.777 23.9753 122.746 25.2819C121.372 26.1646 120.487 26.5301 118.778 26.9213C117.993 27.1008 117.284 27.3045 117.203 27.3736C117.122 27.4428 117.604 27.555 118.274 27.6228C125.169 28.3235 128.188 31.3617 128.188 37.5976C128.188 41.0307 127.378 43.2246 125.369 45.2313C124.137 46.4613 122.641 47.2783 120.534 47.8725C119.188 48.2524 118.779 48.2694 109.709 48.3273L100.284 48.387L100.339 47.6149ZM116.602 46.4855C119.649 45.6875 121.686 43.5756 122.363 40.5149C122.789 38.5901 122.644 35.0615 122.076 33.5583C121.387 31.7301 120.225 30.2667 118.808 29.4429C117.391 28.6194 116.364 28.4415 113.034 28.4415H109.943V46.7533H112.761C114.684 46.7533 115.905 46.6684 116.602 46.4855ZM116.592 26.4001C119.543 25.4415 121.265 22.4937 121.235 18.4497C121.204 14.2318 119.072 11.1968 115.804 10.7178C115.28 10.6412 113.747 10.603 112.397 10.6331L109.943 10.6877V18.6366C109.943 23.0088 110.003 26.6489 110.077 26.7257C110.31 26.9685 115.667 26.7006 116.592 26.4001Z" fill="#171321"/><path d="M27.3495 59.5434C26.7874 59.3802 26.7693 59.3449 26.7693 58.407C26.7693 57.4579 26.758 57.4368 26.1894 57.3258C25.1281 57.1189 23.2994 56.2791 22.4454 55.6059C19.2988 53.1268 18.2208 49.2498 19.6375 45.5104C20.5432 43.1191 23.0426 40.9813 25.7456 40.2856C27.0516 39.9495 26.9898 39.5733 25.6092 39.4577L24.5384 39.3679V37.5727L25.6537 37.5192L26.7693 37.4658V32.8963C26.7693 30.3831 26.7318 28.3267 26.6864 28.3267C26.6404 28.3267 25.2945 29.3973 23.695 30.7056C22.0954 32.0139 20.5666 33.2574 20.2977 33.4692C20.0287 33.681 19.8097 33.9234 19.8111 34.0078C19.8126 34.0925 20.0859 34.4845 20.4188 34.8796C21.0058 35.5768 21.0154 35.6123 20.7374 36.0864C20.5803 36.3551 20.23 36.6527 19.9599 36.7473C19.5092 36.9053 19.4089 36.8495 18.7591 36.0792C18.2482 35.4736 17.9952 35.2927 17.8533 35.4319C17.7105 35.5727 17.8134 35.9625 18.2277 36.8532C18.723 37.9174 18.8097 38.3248 18.8802 39.9189C18.9469 41.4321 18.8955 41.9739 18.5892 42.9859C17.7466 45.7684 15.7299 47.7967 12.9631 48.6442C11.9575 48.9522 11.4331 49.0027 10.0179 48.9288C8.04852 48.8256 6.91242 48.4428 5.30854 47.3419C4.74511 46.9551 4.22329 46.6421 4.14846 46.6462C4.07363 46.6503 3.73961 46.8883 3.40589 47.1753C2.83149 47.6693 2.77168 47.6832 2.29349 47.4345C1.80172 47.1787 1.24609 46.3567 1.24609 45.8849C1.24609 45.7563 1.54283 45.4009 1.90545 45.0946L2.56509 44.5375L2.0895 43.4344C-0.000666022 38.5866 2.12821 33.2927 6.88151 31.5174C7.74254 31.1959 8.28748 31.1262 9.81335 31.143C12.019 31.167 13.1012 31.5053 14.9426 32.7475C16.3996 33.7299 16.7602 33.5661 15.7822 32.3655C15.1202 31.5525 15.1099 31.5178 15.3886 31.0509C15.5464 30.7867 15.892 30.4914 16.1566 30.3941C16.597 30.2323 16.7013 30.2901 17.3757 31.0662L18.1128 31.9147L21.9504 28.7842C24.0608 27.0624 25.7875 25.5694 25.7875 25.4663C25.7875 25.3635 24.101 23.9104 22.0396 22.2375L18.2913 19.1958L17.8004 19.6656C17.1699 20.2695 17.181 20.6235 17.8452 21.1173C18.4988 21.6035 18.5031 21.6899 17.9094 22.3995L17.4384 22.963L16.8746 22.4134C16.2008 21.7564 16.1275 21.7474 15.6842 22.2677C14.9611 23.1172 14.9556 23.2308 15.6172 23.6838C15.9579 23.917 16.2369 24.1981 16.2375 24.3079C16.239 24.5428 15.5548 25.455 15.378 25.4538C15.2158 25.4527 11.8801 22.7711 11.8134 22.5876C11.7845 22.5084 12.6074 21.9771 13.6426 21.4067C14.6779 20.8367 15.5247 20.3079 15.5247 20.2317C15.5247 20.1553 15.2928 19.9267 15.009 19.7237L14.4932 19.3541L12.7538 20.3452C11.7969 20.8901 10.9847 21.3065 10.9486 21.2704C10.9128 21.2343 11.1557 20.3419 11.4883 19.2874L12.0933 17.3697L11.6371 17.0088C11.3863 16.8103 11.1046 16.6737 11.0113 16.7049C10.9177 16.7361 10.5669 17.6434 10.2317 18.7207C9.89656 19.7985 9.59029 20.7118 9.55128 20.7511C9.47905 20.8234 5.8867 17.9224 5.8867 17.7918C5.8867 17.6202 6.68272 16.6575 6.82459 16.6575C6.91098 16.6575 7.26377 16.8742 7.60847 17.1385L8.23547 17.6196L8.7567 17.0585C9.04333 16.75 9.27794 16.4411 9.27794 16.372C9.27794 16.303 8.98034 15.988 8.61686 15.6719L7.95577 15.097L8.3938 14.5407C8.93064 13.8588 9.00346 13.8516 9.66743 14.4136C9.95926 14.6603 10.2586 14.8623 10.3331 14.8623C10.5054 14.8623 11.4224 13.8334 11.4117 13.6519C11.4071 13.5768 10.7281 12.9906 9.90263 12.3489C8.232 11.0501 8.10053 10.7424 8.83934 9.85878C9.76682 8.75014 8.88614 8.17428 19.4514 16.7947C25.1631 21.4547 26.5678 22.5821 26.6641 22.5821C26.7219 22.5821 26.7693 20.5219 26.7693 18.0039V13.426H24.9846V15.2212H23.378V13.426H21.5932V15.2212H19.9868V10.3792L20.8348 10.7158C21.3012 10.9007 22.1986 11.263 22.8288 11.521C23.459 11.7791 24.0417 11.9897 24.123 11.9897C24.2041 11.9897 24.2703 11.6869 24.2694 11.3165L24.2683 10.6432L22.2812 9.85416L20.2939 9.06479L22.2824 8.26443L24.2706 7.46407V6.76485C24.2706 6.37998 24.2322 6.06533 24.185 6.06533C24.138 6.06533 23.2743 6.39732 22.2666 6.80299L20.2101 7.63021C20.0383 7.69899 19.987 7.15896 19.987 5.27654V2.83386H21.5936V4.62903H23.378V2.83386H24.9846V4.62903H26.7693V0.513708L27.4569 0.327632C27.9423 0.196166 28.3105 0.199344 28.7066 0.338034L29.2683 0.535088V11.5777C29.2683 20.9161 29.3065 22.6055 29.5156 22.5249C29.7349 22.4403 34.6095 18.5079 43.0153 11.634C44.5392 10.3881 45.8853 9.30691 46.0066 9.23122C46.3465 9.02029 46.8934 9.26733 47.267 9.80129C48.009 10.8611 47.9718 10.9588 46.3204 12.2795C45.4822 12.9498 44.7963 13.5661 44.7963 13.6491C44.7963 13.8791 45.5563 14.8623 45.7342 14.8623C45.8206 14.8623 46.1757 14.6439 46.5236 14.3769L47.1561 13.8918L47.6617 14.5115L48.168 15.1315L47.4646 15.7597L46.7613 16.3882L47.3193 17.0008C47.7013 17.4203 47.9463 17.5618 48.0966 17.4497C49.304 16.5483 49.2463 16.563 49.7059 17.0328C49.9386 17.2709 50.1537 17.5587 50.1844 17.6722C50.2454 17.8993 46.7721 20.8158 46.5819 20.6974C46.5169 20.6569 46.1965 19.7315 45.8697 18.6407C45.543 17.55 45.1879 16.6601 45.0806 16.6636C44.9734 16.6667 44.6992 16.8253 44.4718 17.0164L44.0578 17.3633L44.6738 19.3443C45.0127 20.4336 45.2511 21.3252 45.2037 21.3252C45.1563 21.3252 44.3155 20.8725 43.3352 20.3191L41.553 19.3128L41.0341 19.8126L40.5152 20.3128L41.6295 20.9323C42.2421 21.2733 43.1323 21.772 43.6076 22.0409L44.4712 22.5301L42.6085 24.06L40.7455 25.5899L40.2462 24.9606L39.7468 24.3311L40.4288 23.7552L41.1106 23.1793L40.6123 22.5217C40.3377 22.1599 40.0742 21.8638 40.0263 21.8638C39.9786 21.8638 39.6356 22.1057 39.2647 22.4013L38.5899 22.9386L38.1063 22.3007L37.6224 21.6627L38.2966 21.0762L38.971 20.4899L38.4518 19.8358C38.008 19.2761 37.8884 19.2131 37.6255 19.4007C36.8688 19.9401 30.1796 25.3744 30.171 25.4567C30.1652 25.5076 30.6225 25.9115 31.1869 26.3544C31.7514 26.7975 33.5211 28.2303 35.1195 29.5385C36.7179 30.8469 38.0586 31.9174 38.0982 31.9174C38.1378 31.9174 38.4298 31.5539 38.7471 31.1095C39.4293 30.1537 39.8029 30.0988 40.5452 30.8454L41.0858 31.3891L40.6166 31.9677C40.0072 32.7177 39.7084 33.3227 39.8677 33.4828C39.9373 33.5527 40.0968 33.5322 40.2222 33.4372C41.4088 32.5348 42.8469 31.7085 43.6062 31.4926C48.013 30.2404 52.0195 31.9203 53.9443 35.827L54.7022 37.3661V39.6235C54.7022 41.9559 54.6886 42.0151 53.6167 44.4017C53.5705 44.5043 53.8568 44.8273 54.2529 45.1198C54.8507 45.5613 54.955 45.7277 54.8689 46.1001C54.7568 46.584 54.1827 47.2845 53.6704 47.5621C53.4223 47.6968 53.1937 47.5979 52.6279 47.1106L51.9033 46.4865L51.0894 47.1114C49.4216 48.3919 47.6982 48.9756 45.6064 48.9684C43.132 48.9597 41.3389 48.2267 39.7093 46.5583C38.4438 45.2619 37.7662 44.0718 37.3966 42.4942C36.924 40.4775 37.1011 38.6929 37.9702 36.712C38.3089 35.9403 38.3748 35.6199 38.2254 35.4695C38.076 35.3193 37.9364 35.3791 37.6833 35.7016C36.5911 37.0937 36.7116 37.0188 36.0898 36.6955C35.7795 36.534 35.4374 36.2358 35.3293 36.0327C35.1248 35.6484 35.169 35.5473 36.0435 34.408L36.4053 33.9365L33.0184 31.1777C31.1557 29.6602 29.5483 28.3909 29.4469 28.3569C29.3217 28.3149 29.2776 29.7663 29.3096 32.844L29.3572 37.393L30.424 37.4479C31.5792 37.5077 31.7616 37.6473 31.7616 38.4702C31.7616 39.2933 31.5792 39.4326 30.424 39.4924C28.9028 39.571 29.0128 39.9365 30.7058 40.4274C32.9557 41.0805 34.5582 42.2616 35.8329 44.2075C37.373 46.5581 37.5405 49.9343 36.2499 52.6069C35.3709 54.4272 33.0248 56.4123 31.0849 56.9771C29.2215 57.5195 29.2683 57.4813 29.2683 58.4663C29.2683 59.2965 29.2339 59.362 28.706 59.5473C28.071 59.7697 28.1296 59.77 27.3495 59.5434ZM26.8028 54.3642C26.8537 53.6315 26.9085 53.5477 27.4384 53.3957C27.7947 53.2938 28.2426 53.2938 28.5988 53.3957C29.1345 53.5494 29.1856 53.6306 29.2683 54.4541C29.3506 55.2781 29.3914 55.3423 29.8036 55.299C30.6726 55.2077 32.427 54.1846 33.2709 53.2773C34.5807 51.8685 35.052 50.6613 35.056 48.7035C35.058 47.8146 34.9543 46.7826 34.8256 46.4099C33.9508 43.873 30.8404 43.1581 29.4949 45.1842C28.693 46.3914 29.1362 48.2573 30.3778 48.9031C30.9244 49.1874 32.2443 49.1833 32.8826 48.8956C33.1591 48.7708 33.1946 48.8679 33.1946 49.7439C33.1946 50.6916 33.1716 50.7411 32.6326 50.9299C31.3503 51.3796 29.4192 50.9445 28.6575 50.0336C28.417 49.7465 28.1863 49.5113 28.1446 49.5113C28.1028 49.5113 27.7878 49.7777 27.4442 50.1036C26.4494 51.0473 24.9768 51.3541 23.5327 50.919L22.8427 50.7109V49.7329C22.8427 48.8632 22.8774 48.7716 23.1549 48.9071C23.3269 48.9909 23.964 49.0602 24.5714 49.0608C25.5525 49.0623 25.737 49.0031 26.2263 48.5312C27.3226 47.4745 27.3214 45.6861 26.2246 44.6554C24.5719 43.1023 21.8588 44.3871 21.2312 47.0197C20.5849 49.7289 21.6658 52.6849 23.8566 54.2013C24.7438 54.8153 26.4338 55.4796 26.6242 55.2888C26.6916 55.2215 26.7718 54.8055 26.8028 54.3642ZM12.5929 46.6494C14.4999 45.9753 16.1965 44.3602 16.6063 42.8291C16.9396 41.584 16.6796 40.5719 15.7989 39.6863C15.1185 39.0015 14.9466 38.9191 14.2009 38.9191C12.766 38.9191 11.6949 39.7961 11.4765 41.1498C11.3268 42.0784 11.9697 43.2879 12.8443 43.7233L13.5366 44.068L12.8026 44.6352C12.3991 44.9472 11.961 45.2027 11.8295 45.2027C11.6978 45.2027 11.2349 44.8733 10.8003 44.4702C9.8223 43.5633 9.36607 42.4583 9.51574 41.3586L9.62381 40.567L8.74139 40.4451C7.3883 40.2579 6.05429 39.1396 5.53015 37.7533C5.35997 37.3031 5.4036 37.2049 6.01643 36.66C6.38684 36.3309 6.73733 36.0581 6.79541 36.054C6.85348 36.0501 6.99419 36.3586 7.10746 36.7403C7.38599 37.6741 8.50678 38.4702 9.54319 38.4702C10.9497 38.4702 12.1338 37.2729 12.1338 35.8504C12.1338 34.2916 10.8168 33.1728 8.98583 33.1759C5.68012 33.1815 2.81617 37.0564 3.40387 40.7279C3.60468 41.9819 3.99706 43.0481 4.25767 43.0481C4.35302 43.0481 4.6749 42.8423 4.97221 42.5904C5.49259 42.15 5.53391 42.1434 6.06353 42.4191C6.36634 42.5765 6.75005 42.9921 6.91618 43.3424L7.21841 43.9799L6.55241 44.5936C6.18632 44.931 5.8867 45.2382 5.8867 45.276C5.8867 45.4775 7.83355 46.5581 8.54261 46.7502C9.79399 47.0895 11.4661 47.0482 12.5929 46.6494ZM48.4904 46.3818C49.0989 46.1059 49.7415 45.7191 49.9183 45.5219C50.2312 45.1738 50.2243 45.1506 49.66 44.6765C48.9879 44.1117 48.9304 43.6468 49.4508 42.9816C50.137 42.1041 50.4589 42.0509 51.2439 42.6855L51.9448 43.2521L52.3419 42.3873C52.6684 41.6759 52.7389 41.2035 52.7389 39.727C52.7389 38.1205 52.6857 37.8229 52.235 36.8995C51.4779 35.3485 50.1555 33.987 48.9746 33.5427C46.8694 32.7504 45.0697 33.2467 44.2857 34.8363C43.7305 35.9631 43.8648 36.7255 44.7819 37.6475C45.952 38.8249 47.4597 38.788 48.5354 37.5553C48.835 37.2124 49.0801 36.7325 49.0801 36.4893C49.0801 35.9154 49.2162 35.931 50.0209 36.5981C50.7813 37.2286 50.8172 37.4202 50.3468 38.3428C49.7481 39.517 48.4978 40.3546 47.2705 40.404L46.5522 40.4329L46.6657 41.1934C46.8374 42.3456 46.4542 43.3648 45.4791 44.3497C45.0147 44.8189 44.5059 45.2027 44.3481 45.2027C44.1904 45.2027 43.7434 44.9455 43.3545 44.6311L42.6478 44.0599L43.1419 43.8461C44.0098 43.4711 44.4825 42.7887 44.5796 41.7689C44.6923 40.5875 44.2746 39.7432 43.3395 39.2633C41.9589 38.5548 40.6533 38.9357 39.8734 40.2743C38.8006 42.1157 39.8272 44.6161 42.2398 46.0386C43.5048 46.7841 44.3953 46.9998 45.9564 46.9392C47.0544 46.8964 47.6401 46.7675 48.4904 46.3818Z" fill="#171321"/></g></g><defs><clipPath id="clip0_118_2471"><rect width="156" height="60" fill="white"/></clipPath></defs></svg>