<svg width="24" height="24" viewBox="0 0 24 24" fill="none" xmlns="http://www.w3.org/2000/svg">
<g clip-path="url(#clip0_155_246)">
<path d="M17.519 11.5056C16.936 12.8742 15.8653 13.9774 14.5148 14.6012C13.1643 15.2249 11.6302 15.3247 10.2103 14.8812C8.79035 14.4377 7.58577 13.4826 6.83032 12.2011C6.07486 10.9196 5.8224 9.40315 6.12191 7.94602C6.42142 6.48889 7.25156 5.19498 8.45123 4.31536C9.6509 3.43575 11.1346 3.03315 12.6143 3.1857C14.0941 3.33824 15.4644 4.03506 16.4594 5.14092C17.4544 6.24678 18.0031 7.68284 17.999 9.17043" stroke="#171321" stroke-width="1.27982" stroke-linecap="round" stroke-linejoin="round"/>
<path d="M7.24438 18.1345V23.5201L11.9988 20.8921L16.7532 23.5201V16.0129" stroke="#171321" stroke-width="1.27982" stroke-linecap="round" stroke-linejoin="round"/>
<path d="M9.81738 9.64084L11.1086 10.932L14.1806 7.86005" stroke="#171321" stroke-width="1.27982" stroke-linecap="round" stroke-linejoin="round"/>
<path d="M20.6905 9.17044C20.6905 10.2672 19.3321 11.0904 18.9361 12.0504C18.5401 13.0104 18.8905 14.5752 18.1441 15.3216C17.3977 16.068 15.8641 15.696 14.8801 16.1064C13.8961 16.5168 13.1041 17.8584 12.0001 17.8584C10.8961 17.8584 10.0801 16.5024 9.12009 16.1064C8.12889 15.696 6.59529 16.0608 5.84889 15.3144C5.10249 14.568 5.46729 13.032 5.05689 12.0432C4.64649 11.0544 3.30249 10.2672 3.30249 9.16324C3.30249 8.05924 4.66089 7.24324 5.05689 6.28324C5.46729 5.29204 5.10249 3.75604 5.84889 3.00964C6.59529 2.26324 8.13609 2.64004 9.12009 2.23204C10.0801 1.83604 10.9033 0.480042 12.0001 0.480042C13.0969 0.480042 13.9201 1.83604 14.8801 2.23204C15.8641 2.64004 17.3977 2.28004 18.1441 3.02404C18.8905 3.76804 18.5257 5.30644 18.9361 6.29764C19.3321 7.25044 20.6905 8.07124 20.6905 9.17044Z" stroke="#171321" stroke-width="1.27982" stroke-linecap="round" stroke-linejoin="round"/>
</g>
<defs>
<clipPath id="clip0_155_246">
<rect width="24" height="24" fill="white"/>
</clipPath>
</defs>
</svg>
