<svg width="24px" height="24px" viewBox="0 0 35 35" fill="currentColor" xmlns="http://www.w3.org/2000/svg"><path fill-opacity="0" d="M16.6596 9.4137H32.3192V29.3491C32.3192 31.006 30.976 32.3491 29.3192 32.3491H1V11.4374" stroke="currentColor" stroke-width="1.45" stroke-miterlimit="10"></path><path fill-opacity="0" d="M10.5998 24.3217L7.12744 20.8814L10.5998 17.441" stroke="currentColor" stroke-width="1.45" stroke-miterlimit="10"></path><path fill-opacity="0" d="M22.7192 17.441L26.1916 20.8814L22.7192 24.3217" stroke="currentColor" stroke-width="1.45" stroke-miterlimit="10"></path><path fill-opacity="0" d="M19.2603 15.7276L14.0586 26.0351" stroke="currentColor" stroke-width="1.45" stroke-miterlimit="10"></path><path d="M5.03035 1.06244L5.72482 2.77586C5.83376 3.05918 6.06524 3.28853 6.3512 3.39646L8.08056 4.08453C8.63886 4.30039 8.63886 5.09638 8.08056 5.31225L6.3512 6.00031C6.06524 6.10824 5.83376 6.3376 5.72482 6.62092L5.03035 8.33433C4.81248 8.88748 4.00907 8.88748 3.7912 8.33433L3.09673 6.62092C2.9878 6.3376 2.75631 6.10824 2.47035 6.00031L0.740989 5.31225C0.182691 5.09638 0.182691 4.30039 0.740989 4.08453L2.47035 3.39646C2.75631 3.28853 2.9878 3.05918 3.09673 2.77586L3.7912 1.06244C4.00907 0.509296 4.81248 0.509296 5.03035 1.06244Z" fill="currentColor"></path><path d="M11.7032 6.94483L12.1662 8.07811C12.2479 8.26699 12.3977 8.4154 12.5883 8.49635L13.7321 8.95506C14.0998 9.10346 14.0998 9.62963 13.7321 9.77803L12.5883 10.2367C12.3977 10.3177 12.2479 10.4661 12.1662 10.655L11.7032 11.7883C11.5534 12.1525 11.0223 12.1525 10.8726 11.7883L10.4096 10.655C10.3279 10.4661 10.1781 10.3177 9.98745 10.2367L8.84362 9.77803C8.47596 9.62963 8.47596 9.10346 8.84362 8.95506L9.98745 8.49635C10.1781 8.4154 10.3279 8.26699 10.4096 8.07811L10.8726 6.94483C11.0223 6.58056 11.5534 6.58056 11.7032 6.94483Z" fill="currentColor"></path></svg>