<svg width="24" height="24" viewBox="0 0 24 24" fill="none" xmlns="http://www.w3.org/2000/svg">
<g clip-path="url(#clip0_155_352)">
<path d="M13.9829 7.5816V2.5224H4.82446" stroke="#171321" stroke-width="1.27982" stroke-linecap="round" stroke-linejoin="round"/>
<path d="M0.480713 8.68805V21.4776H13.9831V17.6112" stroke="#171321" stroke-width="1.27982" stroke-linecap="round" stroke-linejoin="round"/>
<path d="M4.82471 6.8664H0.480713L4.82471 2.5224V6.8664Z" stroke="#171321" stroke-width="1.27982" stroke-linecap="round" stroke-linejoin="round"/>
<path d="M14.0436 16.1304L9.20996 16.8504L9.92996 12.0168L18.8892 3.05283C19.2038 2.74066 19.6291 2.56549 20.0724 2.56549C20.5156 2.56549 20.9409 2.74066 21.2556 3.05283L23.0052 4.80003C23.3166 5.1146 23.4913 5.53937 23.4913 5.98203C23.4913 6.42469 23.3166 6.84946 23.0052 7.16403L14.0436 16.1304Z" stroke="#171321" stroke-width="1.27982" stroke-linecap="round" stroke-linejoin="round"/>
<path d="M19.4024 6.65527L12.092 14.0401" stroke="#171321" stroke-width="1.27982" stroke-linecap="round" stroke-linejoin="round"/>
<path d="M14.044 16.1304L9.92798 12.0144" stroke="#171321" stroke-width="1.27982" stroke-linecap="round" stroke-linejoin="round"/>
<path d="M21.7161 8.45999L17.6001 4.34399" stroke="#171321" stroke-width="1.27982" stroke-linecap="round" stroke-linejoin="round"/>
<path d="M9.43042 15.6625L10.4562 16.6256" stroke="#171321" stroke-width="1.27982" stroke-linecap="round" stroke-linejoin="round"/>
<path d="M3.80469 9.30481H7.23796" stroke="#171321" stroke-width="1.27982" stroke-linecap="round" stroke-linejoin="round"/>
<path d="M3.80469 11.8201H9.92708" stroke="#171321" stroke-width="1.27982" stroke-linecap="round" stroke-linejoin="round"/>
<path d="M3.80469 14.3328H9.40389" stroke="#171321" stroke-width="1.27982" stroke-linecap="round" stroke-linejoin="round"/>
<path d="M3.80469 16.848H6.72826" stroke="#171321" stroke-width="1.27982" stroke-linecap="round" stroke-linejoin="round"/>
</g>
<defs>
<clipPath id="clip0_155_352">
<rect width="24" height="24" fill="white"/>
</clipPath>
</defs>
</svg>
