<svg width="24px" height="24px" viewBox="0 0 24 24" fill="currentColor" fill-opacity="0" xmlns="http://www.w3.org/2000/svg"><g clip-path="url(#clip0_19_18)" stroke="currentColor" stroke-miterlimit="10"><path d="M13.15 18.91c.68-.18 1.32-.45 1.91-.79l2.06 1.58 2.58-2.58-1.58-2.06c.34-.59.6-1.23.79-1.91l2.58-.34V9.16l-2.58-.34c-.18-.67-.45-1.31-.79-1.91l1.58-2.06-2.58-2.58-2.06 1.58c-.59-.34-1.23-.6-1.91-.79L12.81.48H9.16l-.34 2.58c-.68.18-1.31.45-1.91.79L4.85 2.26 2.27 4.84 3.86 6.9c-.34.6-.61 1.24-.79 1.91l-2.58.33v3.65l2.58.33c.18.68.45 1.32.79 1.91l-1.59 2.06 2.58 2.58 2.06-1.59c.59.34 1.24.61 1.91.79l.33 2.58h3.65l.35-2.54zm-2.18-4.3c-2.02 0-3.65-1.63-3.65-3.65s1.63-3.65 3.65-3.65 3.65 1.63 3.65 3.65-1.63 3.65-3.65 3.65zm6.35 8.87c2.67-1.35 4.84-3.53 6.18-6.2"></path></g><defs><clipPath id="clip0_19_18"><path fill="#fff" d="M0 0h24v24H0z"></path></clipPath></defs></svg>