<svg width="24px" height="24px" viewBox="0 0 24 24" fill="currentColor" fill-opacity="0" xmlns="http://www.w3.org/2000/svg"><path d="M17.5 23.5a6 6 0 100-12 6 6 0 000 12z" stroke="currentColor" stroke-miterlimit="10"></path><path d="M11.57 18.43A6.005 6.005 0 016.5 12.5c0-3.31 2.69-6 6-6 2.97 0 5.44 2.16 5.92 5m-.17 2.72a6.017 6.017 0 01-4.16 4.07M12.25 8.22a6.017 6.017 0 01-4.16 4.07" stroke="currentColor" stroke-miterlimit="10"></path><path d="M6.26 12.5C3.06 12.38.5 9.74.5 6.5s2.69-6 6-6 5.87 2.56 6 5.76" stroke="currentColor" stroke-miterlimit="10"></path></svg>