<svg width="27px" height="27px" viewBox="0 0 33 33" fill="#fff" fill-opacity="0" xmlns="http://www.w3.org/2000/svg"><g clip-path="url(#clip0_7608_14915)"><path d="M30.5654 24.1016C28.7549 27.5376 25.7099 30.1601 22.0434 31.4411C18.3769 32.722 14.3613 32.5662 10.805 31.0051C7.24876 29.444 4.41605 26.5934 2.87726 23.0274C1.33847 19.4615 1.20789 15.4449 2.5118 11.7865" stroke="#fff" stroke-width="1.27982" stroke-linecap="round" stroke-linejoin="round"></path><path d="M3.58327 9.42213C5.4503 6.05539 8.51369 3.51263 12.1667 2.2975C15.8196 1.08238 19.7958 1.28353 23.3075 2.86109C26.8192 4.43866 29.6103 7.27759 31.128 10.8156C32.6458 14.3535 32.7794 18.3325 31.5024 21.9643" stroke="#fff" stroke-width="1.27982" stroke-linecap="round" stroke-linejoin="round"></path><path d="M15.7845 32.078C13.3517 30.3461 11.371 28.0545 10.0096 25.3965C8.64808 22.7386 7.94573 19.7922 7.96172 16.8059C7.97772 13.8196 8.7116 10.8809 10.1015 8.23766C11.4913 5.59445 13.4964 3.32421 15.9477 1.61841" stroke="#fff" stroke-width="1.27982" stroke-linecap="round" stroke-linejoin="round"></path><path d="M18.2015 32.078C20.6344 30.3461 22.615 28.0545 23.9765 25.3965C25.338 22.7386 26.0403 19.7922 26.0243 16.8059C26.0083 13.8196 25.2744 10.8809 23.8846 8.23766C22.4947 5.59445 20.4896 3.32421 18.0384 1.61841" stroke="#fff" stroke-width="1.27982" stroke-linecap="round" stroke-linejoin="round"></path><path d="M16.992 1.54803V32.2636" stroke="#fff" stroke-width="1.27982" stroke-linecap="round" stroke-linejoin="round"></path><path d="M2.6774 11.7865H31.3197" stroke="#fff" stroke-width="1.27982" stroke-linecap="round" stroke-linejoin="round"></path> <path d="M2.6774 22.0251H31.3197" stroke="#fff" stroke-width="1.27982" stroke-linecap="round" stroke-linejoin="round"></path></g><defs><clipPath id="clip0_7608_14915"><rect width="31.9954" height="31.9954" fill="white" transform="translate(0.995361 0.908081)"></rect></clipPath></defs></svg>