<svg width="24px" height="24px" viewBox="0 0 32 33" fill="currentColor" fill-opacity="0" xmlns="http://www.w3.org/2000/svg"> <g clip-path="url(#clip0_7608_14985)"> <path d="M18.641 11.0384V4.29382H6.43158" stroke="currentColor" stroke-width="1.27982" stroke-linecap="round" stroke-linejoin="round"></path> <path d="M0.640747 12.5134V29.5638H18.6413V24.4093" stroke="currentColor" stroke-width="1.27982" stroke-linecap="round" stroke-linejoin="round"></path> <path d="M6.43191 10.085H0.640747L6.43191 4.29382V10.085Z" stroke="currentColor" stroke-width="1.27982" stroke-linecap="round" stroke-linejoin="round"></path> <path d="M18.7219 22.4352L12.278 23.3951L13.2379 16.9512L25.1818 5.00095C25.6012 4.58478 26.1682 4.35126 26.7591 4.35126C27.35 4.35126 27.917 4.58478 28.3365 5.00095L30.669 7.33021C31.0842 7.74957 31.3171 8.31586 31.3171 8.90599C31.3171 9.49612 31.0842 10.0624 30.669 10.4818L18.7219 22.4352Z" stroke="currentColor" stroke-width="1.27982" stroke-linecap="round" stroke-linejoin="round"></path> <path d="M25.8662 9.80353L16.1204 19.6485" stroke="currentColor" stroke-width="1.27982" stroke-linecap="round" stroke-linejoin="round"></path> <path d="M18.7224 22.4352L13.2352 16.948" stroke="currentColor" stroke-width="1.27982" stroke-linecap="round" stroke-linejoin="round"></path> <path d="M28.9505 12.2095L23.4633 6.72229" stroke="currentColor" stroke-width="1.27982" stroke-linecap="round" stroke-linejoin="round"></path> <path d="M12.5721 21.8114L13.9395 23.0954" stroke="currentColor" stroke-width="1.27982" stroke-linecap="round" stroke-linejoin="round"></path> <path d="M5.07227 13.3358H9.64931" stroke="currentColor" stroke-width="1.27982" stroke-linecap="round" stroke-linejoin="round"></path> <path d="M5.07227 16.6889H13.2343" stroke="currentColor" stroke-width="1.27982" stroke-linecap="round" stroke-linejoin="round"></path> <path d="M5.07227 20.0388H12.5368" stroke="currentColor" stroke-width="1.27982" stroke-linecap="round" stroke-linejoin="round"></path> <path d="M5.07227 23.3919H8.9698" stroke="currentColor" stroke-width="1.27982" stroke-linecap="round" stroke-linejoin="round"></path> </g> <defs> <clipPath id="clip0_7608_14985"> <rect width="31.9954" height="31.9954" fill="white" transform="translate(0 0.931091)"></rect> </clipPath> </defs> </svg>