<svg width="16px" height="16px" viewBox="0 0 16 16" fill="none" xmlns="http://www.w3.org/2000/svg"><g clip-path="url(#clip0_50_3189)"><path fill-rule="evenodd" clip-rule="evenodd" d="M5.90495 0.279199C7.66044 -0.197156 9.52586 -0.0610437 11.1936 0.665092C12.8614 1.39123 14.2319 2.66403 15.0791 4.27363C15.2721 4.64016 15.1313 5.0937 14.7648 5.28664C14.3983 5.47958 13.9447 5.33885 13.7518 4.97232C13.0634 3.66452 11.9499 2.63037 10.5948 2.04039C9.23976 1.4504 7.72411 1.33981 6.29777 1.72685C4.87143 2.11389 3.61958 2.97545 2.74862 4.16946C1.87767 5.36348 1.43962 6.81865 1.5067 8.29505C1.57378 9.77144 2.142 11.1809 3.11765 12.291C4.0933 13.4011 5.41814 14.1456 6.8737 14.4017C8.32926 14.6578 9.82863 14.4102 11.1246 13.6997C12.4205 12.9893 13.4357 11.8584 14.0027 10.4936C14.1616 10.1111 14.6005 9.92977 14.983 10.0887C15.3655 10.2476 15.5468 10.6865 15.3879 11.069C14.6901 12.7488 13.4407 14.1407 11.8456 15.0151C10.2506 15.8894 8.40524 16.1942 6.61378 15.879C4.82232 15.5638 3.19176 14.6475 1.99096 13.2812C0.790154 11.9149 0.0908127 10.1802 0.00824642 8.36313C-0.0743198 6.54603 0.464819 4.75505 1.53677 3.28549C2.60871 1.81593 4.14946 0.755555 5.90495 0.279199ZM10.7714 8.42224C11.081 8.22588 11.081 7.77412 10.7714 7.57776L6.7678 5.03853C6.4349 4.8274 6 5.06657 6 5.46077V10.5392C6 10.9334 6.4349 11.1726 6.7678 10.9615L10.7714 8.42224Z" fill="#171321"/><path d="M1.29999 5.2187C1.93237 3.69638 3.06466 2.43502 4.51016 1.6426C5.95565 0.850185 7.62803 0.574027 9.25154 0.859665C10.875 1.1453 12.3527 1.97568 13.441 3.21388C14.5292 4.45208 15.163 6.02416 15.2378 7.6709C15.3126 9.31765 14.824 10.9407 13.8526 12.2725C12.8811 13.6043 11.4848 14.5653 9.89392 14.997C8.303 15.4287 6.61247 15.3053 5.10107 14.6473C3.58967 13.9892 2.34765 12.8357 1.57981 11.377" stroke="#171321" stroke-width="1.5" stroke-linecap="round"/></g><defs><clipPath id="clip0_50_3189"><rect width="16" height="16" fill="white"/></clipPath></defs></svg>