<svg data-v-293d1ef5="" width="16px" height="16px" viewBox="0 0 16 16" fill="none" xmlns="http://www.w3.org/2000/svg" data-v-2271f886=""><path fill-rule="evenodd" clip-rule="evenodd" d="M10.4765 11.8907C9.49572 12.5892 8.29583 13 7 13C3.68629 13 1 10.3137 1 7C1 3.68629 3.68629 1 7 1C10.3137 1 13 3.68629 13 7C13 8.29583 12.5892 9.49572 11.8907 10.4765L14.7071 13.2929C15.0976 13.6834 15.0976 14.3166 14.7071 14.7071C14.3166 15.0976 13.6834 15.0976 13.2929 14.7071L10.4765 11.8907ZM11 7C11 9.20914 9.20914 11 7 11C4.79086 11 3 9.20914 3 7C3 4.79086 4.79086 3 7 3C9.20914 3 11 4.79086 11 7Z" fill="#74717a"></path></svg>