<svg width = "24px" height = "24px" viewBox="0 0 32 32" fill="currentColor" fill-opacity="0" xmlns="http://www.w3.org/2000/svg"><g clip-path="url(#clip0_1145_7021)" stroke="currentColor" stroke-width="1.28" stroke-linecap="round" stroke-linejoin="round"><path d="M13.616.826a15.425 15.425 0 014.761 0l.94 2.588a2.387 2.387 0 003.23 1.337l2.492-1.164a15.493 15.493 0 013.369 3.366l-1.165 2.495a2.388 2.388 0 001.338 3.229l2.588.94a15.424 15.424 0 010 4.761l-2.588.94a2.386 2.386 0 00-1.338 3.23l1.165 2.495a15.494 15.494 0 01-3.37 3.366l-2.492-1.165a2.388 2.388 0 00-3.228 1.337l-.32.91m-.621 1.679a15.424 15.424 0 01-4.76 0l-.941-2.589a2.388 2.388 0 00-3.229-1.337L6.955 28.41a15.434 15.434 0 01-3.37-3.37l1.165-2.492a2.368 2.368 0 00-1.337-3.228l-2.589-.94a15.422 15.422 0 010-4.762l2.589-.94a2.387 2.387 0 001.337-3.23L3.586 6.953a15.492 15.492 0 013.369-3.366L9.447 4.75a2.387 2.387 0 003.229-1.337l.275-.758"></path><path d="M21.755 12.968l-1.469-1.45a.867.867 0 00-1.222 0l-4.44 4.441-1.697-1.695a.86.86 0 00-1.222 0l-1.452 1.452a.864.864 0 000 1.22l3.391 3.394a1.386 1.386 0 001.955 0l6.156-6.14a.867.867 0 000-1.222v0z"></path></g><defs><clipPath id="clip0_1145_7021"><path fill="#fff" d="M0 0h31.995v31.995H0z"></path></clipPath></defs></svg>